<svg preserveAspectRatio="none" width="100%" height="100%" overflow="visible" style="display: block;" viewBox="0 0 3185.29 1138.18" fill="none" xmlns="http://www.w3.org/2000/svg">
<g id="Capa 1">
<path id="Vector" d="M82.5661 105.341C194.371 161.405 293.427 239.901 373.558 335.934C491.657 479.23 485.233 567.02 598.666 648.881C708.913 728.38 860.229 750.287 982.995 720.255C1150.51 679.242 1158.08 567.624 1372.81 390.837C1499.09 286.96 1735.9 91.9447 2015.19 110.831C2156.3 120.385 2296.58 183.743 2426.98 242.599C2586.8 314.741 2609.75 351.801 2696.01 368.875C2798.46 389.19 2956.86 374.75 3184.65 193.186" stroke="var(--stroke-0, #00D4AA)" stroke-opacity="0.12" stroke-width="2.05293" stroke-miterlimit="10"/>
<path id="Vector_2" d="M79.4369 125.874C180.184 175.127 271.007 242.499 347.369 324.623C354.672 332.584 361.974 340.764 369.331 349.165C488.638 487.959 483.916 571.796 595.921 651.625C644.743 686.557 700.023 711.435 758.547 724.811C800.466 734.354 843.459 738.341 886.419 736.67C918.544 735.403 950.425 730.522 981.458 722.121C1016.04 713.232 1048.91 698.688 1078.75 679.077C1133.65 642.841 1172.09 593.922 1231.22 532.541C1275.76 486.345 1324.22 444.095 1376.05 406.264C1403.51 385.95 1435.57 361.463 1472.63 336.372C1571.79 269.061 1698.67 195.93 1850.92 170.675C1902.58 161.86 1955.07 158.913 2007.4 161.891C2015.41 162.33 2023.37 162.989 2031.23 163.757C2108.97 171.279 2183.04 191.209 2258.69 217.672C2315.3 237.217 2368.83 261.594 2421.92 284.489C2444.16 294.262 2464.04 303.156 2481.99 311.501C2590.43 362.067 2618.59 389.189 2692.66 401.048C2748.93 410.052 2821.74 408.46 2914.14 376.397C2989.91 350.153 3079.62 302.881 3184.65 224.7" stroke="var(--stroke-0, #00D4AA)" stroke-opacity="0.12" stroke-width="2.05293" stroke-miterlimit="10"/>
<path id="Vector_3" d="M76.527 146.519C176.231 193.91 266.495 259.021 342.922 338.679C350.243 346.365 357.563 354.235 364.884 362.287C485.673 496.635 482.763 576.409 593.23 654.371C642.169 689.759 697.626 715.117 756.406 728.984C798.572 738.589 841.847 742.431 885.046 740.404C917.22 738.764 949.077 733.233 979.921 723.933C1014.33 713.988 1047.02 698.863 1076.88 679.077C1133.98 641.743 1174.5 594.417 1232.97 537.098C1277.73 493.594 1326.75 454.709 1379.29 421.033C1406.75 403.025 1438.1 380.954 1474.77 359.103C1572.5 300.851 1691.64 239.744 1842.36 219.814C1894.42 212.64 1947.05 210.288 1999.55 212.786C2007.67 213.226 2015.69 213.775 2023.59 214.488C2102.66 221.406 2174.86 238.481 2252.05 262.034C2310.19 279.823 2363.23 303.761 2416.76 326.326C2439 335.659 2459.09 344.169 2477.49 352.13C2586.25 399.402 2615.41 424.328 2689.2 433.112C2745.42 439.81 2817.67 436.132 2910.57 403.684C2986.45 377.111 3077.32 330.718 3184.65 256.324" stroke="var(--stroke-0, #00D4AA)" stroke-opacity="0.12" stroke-width="2.05293" stroke-miterlimit="10"/>
<path id="Vector_4" d="M73.0672 166.832C171.955 212.429 261.851 275.415 338.474 352.789C345.776 360.255 353.134 367.832 360.436 375.573C482.817 505.419 481.445 581.24 590.429 657.116C642.039 693.023 692.881 718.882 754.099 733.211C796.548 742.895 840.144 746.592 883.618 744.192C915.853 742.165 947.689 735.965 978.328 725.745C1012.58 714.751 1045.14 699.044 1075.07 679.077C1134.26 640.645 1176.81 595.021 1234.68 541.82C1279.68 500.983 1329.3 465.549 1382.53 436.241C1410.26 420.539 1440.68 400.884 1476.91 382.272C1573.71 332.529 1684.62 283.83 1833.79 269.116C1886.27 263.605 1939.08 261.862 1991.8 263.901C1999.98 264.285 2008.28 264.779 2015.96 265.438C2093.53 271.791 2170.32 285.599 2245.24 306.67C2304.92 322.647 2357.52 346.365 2411.71 368.326C2433.95 377.33 2454.21 385.401 2473.09 392.978C2582.13 436.9 2612.33 459.52 2685.79 465.395C2742.01 469.897 2813.88 463.967 2907.11 431.135C2983.15 404.562 3075.01 358.499 3184.65 287.619" stroke="var(--stroke-0, #00D4AA)" stroke-opacity="0.12" stroke-width="2.05293" stroke-miterlimit="10"/>
<path id="Vector_5" d="M69.8834 187.311C167.816 231.135 257.238 291.913 334.028 366.843C341.33 374.091 348.742 381.338 355.989 388.805C479.688 514.368 480.237 585.742 587.685 659.916C640.448 696.207 689.587 722.78 751.903 737.439C794.597 747.218 838.483 750.75 882.191 747.925C914.573 745.577 946.469 738.721 976.956 727.556C1010.98 715.603 1043.37 699.426 1073.37 679.406C1134.64 639.821 1179.5 596.063 1236.54 546.486C1276.79 511.568 1324.39 481.042 1385.94 451.394C1413.88 437.888 1443.64 420.593 1479.27 405.276C1575.69 363.824 1677.81 327.862 1825.17 318.364C1877.98 314.469 1930.96 313.314 1983.9 314.905C1992.19 315.235 2000.37 315.674 2008.22 316.223C2085.94 321.318 2163.08 333 2238.82 351.141C2300.15 365.306 2351.98 388.86 2406.72 410.052C2428.68 418.727 2449.49 426.523 2468.81 433.606C2578.07 474.453 2609.31 494.493 2682.55 497.403C2738.78 499.654 2810.15 491.583 2903.76 458.422C2979.81 431.464 3072.76 386.224 3184.65 318.968" stroke="var(--stroke-0, #00D4AA)" stroke-opacity="0.12" stroke-width="2.05293" stroke-miterlimit="10"/>
<path id="Vector_6" d="M66.7543 207.789C163.709 249.871 252.634 308.441 329.581 380.898C336.883 387.871 344.295 394.789 351.542 401.926C476.724 522.713 478.975 590.518 584.83 662.606C638.746 699.336 686.183 726.622 749.543 741.611C792.52 751.474 836.733 754.842 880.709 751.603C913.098 748.915 944.907 741.421 975.089 729.368C1008.91 716.404 1041.16 699.663 1071.23 679.461C1134.64 638.833 1181.86 597.106 1237.97 551.152C1279.42 517.332 1328.07 490.759 1388.9 466.492C1417.18 455.182 1446.28 440.358 1481.14 428.06C1577.94 394.569 1670.67 371.675 1816.5 367.282C1867.17 365.745 1923.23 363.824 1975.99 365.635C1984.39 365.91 1992.46 366.294 2000.48 366.733C2078.22 370.567 2155.56 380.109 2231.9 395.283C2294.77 407.636 2346.21 431.025 2401.55 451.778C2423.79 460.123 2444.49 467.316 2464.31 474.124C2573.79 512.171 2606.24 530.838 2678.99 529.685C2735.21 528.807 2806.14 519.419 2900.09 485.763C2976.18 458.312 3070.29 414.005 3184.43 350.427" stroke="var(--stroke-0, #00D4AA)" stroke-opacity="0.12" stroke-width="2.05293" stroke-miterlimit="10"/>
<path id="Vector_7" d="M63.5693 228.214C159.564 268.595 248.007 324.976 325.133 394.955C332.435 401.653 339.902 408.296 347.095 415.104C473.813 531.498 477.767 595.131 582.03 665.352C636.934 702.411 682.779 730.467 747.291 745.839C790.47 755.726 834.911 758.929 879.061 755.338C911.557 752.275 943.368 744.123 973.332 731.18C1006.88 717.151 1038.97 699.865 1069.14 679.572C1134.64 637.79 1184.44 597.876 1239.34 555.765C1282.06 522.824 1331.8 500.533 1391.81 481.591C1420.53 472.478 1451.77 467.207 1482.95 451.34C1584.14 447.112 1663.75 407.417 1807.55 416.751C1858.33 420.1 1915.27 415.433 1967.81 416.751C1976.32 417.026 1984.56 417.3 1992.46 417.684C2077.13 421.692 2141.91 426.359 2224.93 439.646C2289.33 450.132 2340.23 473.411 2396.17 493.505C2418.14 501.521 2439.27 508.329 2459.59 514.753C2569.12 549.451 2602.72 564.165 2675.36 561.42C2731.64 559.169 2802.14 546.761 2896.41 512.831C2972.61 485.38 3067.71 441.457 3184.21 381.558" stroke="var(--stroke-0, #00D4AA)" stroke-opacity="0.12" stroke-width="2.05293" stroke-miterlimit="10"/>
<path id="Vector_8" d="M60.3845 248.692C155.408 287.369 243.366 341.523 320.685 408.953C328.043 415.432 335.509 421.746 342.647 428.224C471.178 540.117 476.778 599.686 579.449 668.096C635.726 705.539 679.649 734.309 745.205 750.066C788.758 760.075 833.626 763.096 878.128 759.015C914.31 755.995 944.013 745.125 972.233 732.936C1005.53 717.869 1037.51 700.036 1067.82 679.625C1135.41 636.746 1188.01 598.918 1241.65 560.376C1285.57 528.697 1336.63 510.414 1395.38 496.634C1424.7 489.771 1455.23 488.178 1485.48 474.343C1586.67 482.139 1656.94 460.343 1799.31 465.888C1850.37 467.919 1907.97 466.711 1960.34 467.864C1968.91 467.864 1977.25 468.249 1985.11 468.523C2071.2 471.763 2134.12 473.41 2218.61 484.445C2284.5 493.12 2334.9 516.234 2391.45 535.724C2413.41 543.411 2434.72 549.78 2455.53 555.819C2565.33 587.553 2599.98 599.741 2672.34 593.867C2728.62 589.42 2798.62 574.87 2893.28 540.556C2969.54 513.104 3065.73 469.621 3184.54 413.401" stroke="var(--stroke-0, #00D4AA)" stroke-opacity="0.12" stroke-width="2.05293" stroke-miterlimit="10"/>
<path id="Vector_9" d="M57.2551 269.116C151.263 306.15 238.706 358.055 316.238 422.845C323.595 429.104 331.117 435.143 338.529 441.237C468.378 548.627 475.79 604.079 576.704 670.622C634.133 708.45 676.355 737.988 743.008 754.02C786.771 764.141 831.894 767.034 876.59 762.584C913.266 759.235 942.475 747.486 970.531 734.584C1005.18 718.662 1033.67 699.995 1065.79 679.681C1135.52 635.758 1198.6 609.35 1243.24 564.989C1293.81 543.412 1341.08 502.234 1398.67 511.733C1428.65 516.674 1458.52 509.097 1487.73 497.348C1588.97 517.113 1650.3 504.65 1790.86 515.082C1842.14 518.87 1900.66 517.992 1952.6 518.815C1961.33 518.815 1969.68 518.815 1977.58 519.309C2064.99 521.78 2126.1 520.243 2212.03 528.917C2279.61 535.67 2329.36 558.675 2386.46 577.561C2408.42 584.918 2429.94 590.903 2451.19 596.503C2561 625.327 2597.01 634.606 2669.1 625.986C2725.43 619.233 2795 602.542 2889.93 567.843C2966.3 540.063 3063.31 497.348 3184.65 444.806" stroke="var(--stroke-0, #00D4AA)" stroke-opacity="0.12" stroke-width="2.05293" stroke-miterlimit="10"/>
<path id="Vector_10" d="M54.0713 289.54C147.119 325.007 234.069 374.761 311.792 437.01C319.149 442.994 326.671 448.484 334.138 454.469C465.908 557.357 474.528 608.691 573.959 673.422C632.597 711.579 673.061 741.886 740.758 758.302C784.796 768.469 830.225 771.197 875.164 766.373C912.334 762.694 941.049 749.902 968.995 736.45C1002.98 719.98 1031.15 700.434 1063.92 679.736C1135.74 634.605 1202.12 611.327 1245.11 569.545C1297.43 550.329 1347.67 511.787 1402.08 526.776C1431.84 534.957 1461.87 530.07 1489.93 520.352C1591.22 552.086 1643.66 549.067 1782.35 564.275C1833.85 569.765 1892.81 569.326 1944.86 569.765H1969.95C2058.79 571.412 2118.19 566.855 2205.44 573.059C2274.62 577.946 2323.76 600.895 2381.46 619.123C2403.42 626.15 2425.11 631.696 2446.85 636.856C2556.66 662.88 2593.99 669.304 2665.81 657.829C2722.14 648.77 2791.27 629.939 2886.52 594.911C2962.95 566.855 3061.28 524.854 3184.71 475.936" stroke="var(--stroke-0, #00D4AA)" stroke-opacity="0.12" stroke-width="2.05293" stroke-miterlimit="10"/>
<path id="Vector_11" d="M50.8863 309.91C142.862 343.87 229.232 391.413 307.124 450.956C314.536 456.446 322.058 461.937 329.525 467.427C462.723 565.758 473.209 612.975 571.104 676.058C630.949 714.49 669.931 745.62 738.451 762.366C782.735 772.664 828.464 775.246 873.626 769.997C911.345 765.989 939.511 752.483 967.292 738.154C1000.62 720.804 1028.51 700.765 1061.95 679.737C1135.9 633.508 1205.52 613.249 1246.53 574.103C1300.67 557.193 1350.85 551.154 1405.04 541.766C1436.12 547.695 1464.78 550.934 1491.9 543.303C1593.2 587.225 1636.63 593.484 1773.56 613.304C1825.28 620.826 1885.02 621.21 1936.85 620.606C1945.74 620.606 1954.25 620.606 1962.1 620.606C2052.36 619.453 2109.79 613.743 2198.57 617.587C2269.4 620.606 2317.88 643.446 2376.24 661.07C2398.21 667.713 2420.17 672.929 2442.13 677.541C2551.94 700.765 2590.37 704.224 2662.07 689.894C2718.46 678.584 2787.09 657.611 2882.79 622.198C2959.27 593.923 3058.48 552.581 3184.38 507.286" stroke="var(--stroke-0, #00D4AA)" stroke-opacity="0.12" stroke-width="2.05293" stroke-miterlimit="10"/>
<path id="Vector_12" d="M47.7571 330.333C138.825 362.766 224.766 408.103 302.952 464.955C310.309 470.446 317.886 475.551 325.353 480.712C460.307 574.432 472.331 617.586 568.468 678.747C629.522 717.619 666.472 749.463 736.311 766.592C780.974 777.012 827.135 779.41 872.638 773.675C911.071 769.337 938.797 755.008 965.975 739.964C998.917 721.901 1026.37 701.203 1060.36 679.571C1136.34 632.245 1209.31 615.005 1248.46 578.495C1304.35 563.945 1355.3 562.024 1408.5 556.533C1439.96 565.318 1468.18 571.577 1494.32 565.977C1595.62 621.703 1630.1 637.735 1765.22 662.167C1817.15 671.555 1877.6 672.214 1929.27 671.281C1938.27 671.281 1946.78 671.281 1954.69 671.281C2046.27 669.249 2101.94 660.3 2192.15 661.892C2264.51 663.045 2312.45 685.83 2371.41 702.795C2393.37 709.164 2415.34 713.776 2438.12 718.223C2547.93 738.756 2587.9 739.196 2659.11 722.011C2715.5 708.395 2783.69 685.336 2879.72 649.539C2956.25 621.044 3056.78 580.361 3184.76 538.745" stroke="var(--stroke-0, #00D4AA)" stroke-opacity="0.12" stroke-width="2.05293" stroke-miterlimit="10"/>
<path id="Vector_13" d="M44.5724 350.703C134.662 381.691 220.096 424.841 298.504 478.956C305.916 484.447 313.493 488.949 320.96 493.835C457.726 582.888 471.288 621.979 565.723 681.439C627.984 720.584 663.178 753.197 734.114 770.711C778.942 781.196 825.302 783.447 870.935 777.354C909.368 772.632 937.26 757.479 964.273 741.667C996.337 722.89 1023.57 701.533 1058.38 679.846C1136.51 631.367 1212.71 617.202 1250.05 583.272C1307.75 571.029 1359.25 572.895 1411.63 571.907C1443.42 583.492 1471.26 592.825 1496.35 589.256C1597.7 657.007 1623.18 682.592 1756.54 711.635C1808.7 722.945 1869.86 723.055 1921.25 722.616C1930.37 722.616 1938.93 722.616 1946.84 722.616C2039.85 719.706 2093.71 710.043 2185.34 706.914C2259.24 704.388 2306.63 728.875 2366.2 745.346C2388.38 751.326 2410.86 756.091 2433.56 759.62C2543.37 777.519 2584.66 774.883 2655.6 754.844C2712.04 738.922 2779.73 713.776 2876.09 677.595C2952.96 648.881 3054.31 608.802 3184.6 570.864" stroke="var(--stroke-0, #00D4AA)" stroke-opacity="0.12" stroke-width="2.05293" stroke-miterlimit="10"/>
<path id="Vector_14" d="M41.3877 359.323C130.511 388.989 215.435 430.029 294.057 481.427C301.469 486.368 309.101 490.87 316.622 495.427C455.146 579.813 470.354 614.841 562.978 672.544C626.447 712.074 659.883 745.455 731.863 763.299C776.962 773.888 823.638 775.992 869.508 769.503C908.709 764.397 935.997 748.475 962.845 731.894C994.085 712.019 1020.88 690.058 1056.51 668.097C1136.73 618.684 1216.28 607.319 1251.75 576.08C1311.21 566.142 1363.32 571.962 1414.87 575.146C1446.99 589.586 1474.39 601.939 1498.49 600.456C1599.9 680.176 1616.42 715.753 1747.92 748.694C1800.35 761.926 1862.23 762.201 1913.51 761.377L1939.21 760.883C2033.64 759.236 2085.64 742.216 2178.7 738.922C2254.3 736.177 2300.97 758.961 2361.14 774.609C2383.57 780.281 2406.3 784.662 2429.23 787.731C2538.76 802.994 2581.64 797.174 2652.25 774.334C2708.74 756.106 2776 728.875 2872.69 692.309C2949.55 663.375 3052.06 623.955 3184.65 589.695" stroke="var(--stroke-0, #00D4AA)" stroke-opacity="0.12" stroke-width="2.05293" stroke-miterlimit="10"/>
<path id="Vector_15" d="M38.094 362.781C126.219 390.941 210.616 429.654 289.445 478.078C296.912 482.799 304.544 486.972 312.066 491.2C452.621 571.028 469.147 602.213 560.233 657.995C624.965 697.8 656.59 732.004 729.667 750.232C775.056 760.838 822.05 762.701 868.136 755.722C907.776 750.232 934.734 733.761 961.198 716.192C991.89 696.043 1018.52 673.313 1054.54 650.967C1136.89 600.292 1219.69 592.111 1253.34 563.507C1314.62 555.875 1369.25 557.083 1418.06 573.06C1453.03 584.535 1477.52 606.002 1500.41 606.002C1601.82 697.69 1609.34 743.259 1739.08 780.648C1791.68 795.911 1854.38 796.295 1905.39 795.143C1914.72 795.143 1923.39 794.703 1931.25 794.484C2027.11 791.958 2077.24 771.809 2171.78 766.099C2248.92 761.432 2295.04 784.217 2355.82 799.041C2378.46 804.474 2401.42 808.472 2424.56 811.009C2534.04 823.747 2578.29 814.688 2648.62 789.048C2705.12 768.46 2771.94 739.141 2868.95 702.247C2945.82 673.093 3049.48 634.332 3184.38 603.421" stroke="var(--stroke-0, #00D4AA)" stroke-opacity="0.12" stroke-width="2.05293" stroke-miterlimit="10"/>
<path id="Vector_16" d="M35.0744 366.129C122.238 392.954 206.123 429.454 285.163 474.947C292.685 479.394 300.371 483.237 307.838 487.19C450.15 562.078 468.159 589.09 557.488 643.444C623.373 683.523 653.241 718.551 727.691 737.109C773.316 748.03 820.64 749.895 866.983 742.599C907.173 736.724 933.746 719.265 959.881 701.202C989.968 680.394 1016.27 656.895 1053.22 634.22C1137.61 582.447 1223.7 577.341 1255.59 551.317C1318.57 545.827 1374.3 551.921 1421.73 571.356C1457.37 585.961 1481.14 609.789 1503.21 612.479C1604.62 716.191 1603.14 771.697 1731.17 813.314C1783.99 830.608 1847.3 831.048 1898.25 829.785L1924.27 828.906C2021.51 825.557 2069.82 802.224 2165.85 794.208C2244.64 787.564 2290.1 810.679 2351.54 824.679C2374.39 829.92 2397.58 833.589 2420.94 835.659C2530.31 845.926 2575.99 833.573 2646.04 805.133C2702.54 782.239 2768.86 750.834 2866.26 713.555C2969.36 672.537 3075.92 640.787 3184.65 618.683" stroke="var(--stroke-0, #00D4AA)" stroke-opacity="0.12" stroke-width="2.05293" stroke-miterlimit="10"/>
<path id="Vector_17" d="M31.8897 367.229C118.109 392.85 201.484 427.215 280.715 469.787C288.292 473.96 295.979 477.529 303.446 481.152C447.679 551.263 467.115 574.487 554.742 626.975C621.945 667.328 649.946 703.18 725.22 722.122C771.134 733.091 818.787 734.697 865.335 726.843C905.964 720.584 932.209 702.356 958.069 683.525C987.497 662.058 1013.47 637.845 1050.97 614.841C1137.5 561.97 1226.66 559.938 1256.91 536.495C1321.7 533.53 1378.31 544.181 1424.59 566.966C1460.83 584.809 1483.94 611.382 1504.97 616.049C1606.43 731.73 1595.89 797.229 1722.17 843.073C1775.21 862.399 1839.28 862.838 1890.01 861.136C1899.51 860.807 1908.35 860.367 1916.2 860.038C2015.03 855.81 2061.31 829.402 2158.71 819.025C2239.04 810.461 2283.95 833.355 2345.99 846.916C2369.08 851.846 2392.49 855.076 2416.05 856.579C2525.36 864.43 2572.42 848.673 2642.2 817.488C2698.7 792.233 2764.58 758.797 2862.31 721.078C2966.32 679.838 3074.36 649.569 3184.65 630.763" stroke="var(--stroke-0, #00D4AA)" stroke-opacity="0.12" stroke-width="2.05293" stroke-miterlimit="10"/>
<path id="Vector_18" d="M28.705 364.099C113.996 388.495 196.865 420.675 276.268 460.234C283.845 464.132 291.586 467.426 299.053 470.775C445.263 535.945 466.346 555.052 551.997 606.111C620.462 646.74 646.652 683.47 723.023 702.686C769.191 713.781 817.151 715.239 863.908 706.968C905.031 700.27 930.946 681.328 956.476 661.728C985.301 639.767 1010.94 614.676 1049.1 591.342C1137.71 537.373 1230.28 538.306 1258.61 517.553C1325.16 516.894 1382.53 532.377 1427.83 558.51C1464.5 579.703 1487.13 608.802 1507.17 615.5C1608.63 743.204 1588.97 818.641 1713.6 868.657C1766.75 890.07 1831.65 890.619 1882.22 888.532C1891.77 888.148 1900.66 887.654 1908.51 887.27C2008.61 882.218 2053.08 852.571 2151.91 839.888C2233.82 829.347 2278.18 852.296 2340.72 865.199C2364.06 869.837 2387.72 872.682 2411.49 873.709C2520.75 879.199 2569.12 859.983 2638.63 826.053C2695.13 798.601 2760.63 762.914 2858.69 724.866C2963.45 683.209 3072.83 654.252 3184.49 638.614" stroke="var(--stroke-0, #00D4AA)" stroke-opacity="0.12" stroke-width="2.05293" stroke-miterlimit="10"/>
<path id="Vector_19" d="M25.5755 360.97C109.932 384.239 192.28 414.258 271.821 450.736C279.453 454.36 287.194 457.27 294.661 460.344C442.902 520.738 464.864 535.836 549.252 585.249C618.925 626.096 643.357 663.705 720.772 683.305C767.211 694.562 815.507 695.854 862.48 687.094C904.097 679.901 929.683 660.356 954.939 639.932C983.16 617.147 1008.42 591.507 1047.23 567.844C1137.99 512.941 1233.91 516.675 1260.32 498.557C1320.93 499.278 1380.1 517.111 1431.01 550.001C1468.07 574.597 1490.31 606.167 1509.31 614.951C1610.82 754.624 1582 840.053 1705.04 894.243C1758.3 917.796 1824.02 918.235 1874.36 915.929C1884.08 915.49 1892.98 914.941 1900.88 914.447C2002.29 908.408 2045.12 876.015 2145.37 860.752C2228.77 848.289 2272.69 871.238 2335.83 883.482C2357.8 887.709 2380.97 888.368 2407.21 890.784C2516.03 900.831 2566.16 871.293 2635.39 834.563C2691.89 804.586 2756.95 767.032 2855.34 728.6C2960.97 686.529 3071.76 658.83 3184.76 646.246" stroke="var(--stroke-0, #00D4AA)" stroke-opacity="0.12" stroke-width="2.05293" stroke-miterlimit="10"/>
<path id="Vector_20" d="M22.3915 357.84C105.855 380.011 187.706 407.857 267.374 441.183C275.061 444.477 282.802 447.167 290.324 449.912C440.432 504.815 464.096 516.619 546.507 564.385C617.498 605.507 639.844 643.939 718.577 663.924C765.363 675.328 814.065 676.451 861.328 667.218C903.384 659.532 928.64 639.328 953.621 618.135C981.074 594.691 1006.11 568.338 1045.59 544.345C1138.48 488.125 1237.75 494.933 1262.24 479.615C1324.47 482.878 1384.33 504.527 1434.25 541.82C1471.53 569.765 1493.49 603.86 1511.45 614.676C1613.02 766.318 1574.97 861.74 1696.42 920.156C1749.84 945.796 1816.33 946.18 1866.62 943.6C1876.4 943.106 1885.4 942.447 1893.25 941.953C1996.09 934.98 2037.05 899.238 2138.78 881.889C2223.83 867.45 2266.93 890.564 2330.95 902.038C2354.85 905.364 2378.92 907.417 2403.04 908.187C2512.02 915.27 2563.25 882.877 2632.26 843.402C2688.7 811.064 2753.38 771.479 2851.88 732.663C2958.29 690.265 3070.43 663.953 3184.6 654.591" stroke="var(--stroke-0, #00D4AA)" stroke-opacity="0.12" stroke-width="2.05293" stroke-miterlimit="10"/>
<path id="Vector_21" d="M19.2068 354.71C101.814 375.839 183.195 401.5 262.981 431.574C270.668 434.594 278.409 437.064 285.931 439.425C438.016 489.497 463.107 497.293 543.981 543.741C616.015 584.808 636.55 624.174 716.325 644.488C763.308 656.055 812.275 657.03 859.68 647.343C902.231 639.162 927.212 618.299 951.81 596.338C978.822 572.291 1003.36 545.168 1043.55 520.846C1138.48 463.528 1241.21 473.52 1263.72 460.453C1327.75 466.134 1388.45 491.487 1437.49 533.035C1474.88 564.439 1496.62 600.95 1513.59 613.797C1615.16 777.463 1567.89 883.206 1687.86 945.466C1741.39 973.247 1808.64 973.577 1858.72 970.722C1868.6 970.173 1877.66 969.459 1885.51 968.855C1989.83 960.949 2028.87 922.132 2132.09 902.477C2218.72 886.006 2261.22 909.285 2325.73 920.046C2349.86 923.19 2374.15 924.859 2398.48 925.042C2507.63 929.16 2559.95 893.912 2628.69 851.637C2685.19 816.993 2749.48 775.322 2848.31 736.341C2955.58 693.565 3069.12 668.585 3184.43 662.386" stroke="var(--stroke-0, #00D4AA)" stroke-opacity="0.12" stroke-width="2.05293" stroke-miterlimit="10"/>
<path id="Vector_22" d="M16.1319 351.582C110.183 375.465 194.571 399.787 258.589 422.078C266.385 424.823 274.127 426.909 281.594 429.105C435.71 473.906 462.174 478.079 541.071 522.44C614.588 563.947 633.53 604.191 714.184 624.889C761.424 636.596 810.709 637.404 858.307 627.25C901.352 618.52 926.059 597.108 950.327 574.324C976.681 549.617 1000.89 521.781 1041.74 497.13C1138.81 438.713 1244.89 451.725 1265.48 441.513C1331.26 449.673 1392.7 478.688 1440.79 524.307C1478.23 559.17 1502.22 595.955 1515.84 613.03C1642.12 771.865 1560.81 904.62 1679.34 970.833C1732.93 1000.81 1801.12 1001.03 1850.98 997.9C1860.97 997.296 1870.03 996.473 1877.93 995.814C1983.51 986.974 2020.68 945.083 2125.44 923.177C2213.67 904.675 2255.56 928.064 2320.74 938.056C2345.03 941.659 2369.61 942.964 2394.14 941.954C2503.35 938.221 2556.88 904.949 2625.4 859.984C2681.84 822.924 2745.64 779.221 2845.02 739.691C2953.2 696.56 3068.17 672.898 3184.6 669.8" stroke="var(--stroke-0, #00D4AA)" stroke-opacity="0.12" stroke-width="2.05293" stroke-miterlimit="10"/>
<path id="Vector_23" d="M12.8926 348.451C107.987 371.62 191.825 393.582 254.087 412.523C261.938 414.939 269.68 416.751 277.147 418.672C433.404 458.202 461.13 458.806 538.271 501.74C613.105 543.467 630.18 584.699 711.878 605.727C759.413 617.588 809.055 618.227 856.88 607.593C900.364 598.26 924.741 576.299 948.68 552.69C974.485 527.325 998.093 498.776 1039.82 473.795C1138.98 414.225 1248.07 430.312 1267.18 422.68C1342.62 433.661 1401.91 472.971 1443.97 516.015C1481.36 554.447 1505.02 594.142 1517.93 612.645C1640.09 787.62 1553.61 926.415 1670.67 996.636C1724.31 1028.75 1793.44 1028.86 1843.07 1025.46C1853.17 1024.75 1862.34 1023.92 1870.19 1023.21C1977.2 1013.38 2012.56 968.306 2118.74 944.204C2208.51 923.725 2249.8 947.278 2315.57 956.502C2340.11 959.828 2364.92 960.729 2389.64 959.192C2498.9 953.318 2553.69 916.423 2621.99 868.657C2678.38 829.237 2741.8 783.503 2841.61 743.588C2918.97 712.678 3031.42 679.132 3184.65 677.705" stroke="var(--stroke-0, #00D4AA)" stroke-opacity="0.12" stroke-width="2.05293" stroke-miterlimit="10"/>
<path id="Vector_24" d="M9.70787 345.322C105.79 367.942 189.08 387.268 249.639 403.025C257.545 405.057 265.287 406.594 272.754 408.516C430.823 442.391 460.142 439.481 535.525 480.878C610.909 522.275 626.886 564.934 709.681 586.292C757.466 598.354 807.44 598.844 855.452 587.719C899.375 577.727 923.533 555.326 947.142 530.949C972.343 504.98 995.787 475.662 1037.95 450.352C1139.25 389.958 1251.64 408.79 1268.88 403.794C1346.13 417.081 1405.48 461.003 1447.21 507.561C1484.49 549.177 1507.6 592.056 1520.07 611.876C1637.51 802.664 1546.37 947.883 1662.1 1022C1715.75 1056.37 1785.75 1056.32 1835.27 1052.64C1845.43 1051.87 1854.65 1050.94 1862.72 1050.17C1971.11 1039.19 2004.65 991.311 2112.26 964.848C2203.62 942.392 2244.36 966.11 2310.74 974.566C2335.53 977.632 2360.57 978.147 2385.47 976.103C2494.78 968.032 2550.73 927.514 2618.86 877.003C2675.2 835.222 2738.23 787.456 2838.48 747.157C2915.95 716.027 3029.44 683.086 3184.98 685.446" stroke="var(--stroke-0, #00D4AA)" stroke-opacity="0.12" stroke-width="2.05293" stroke-miterlimit="10"/>
<path id="Vector_25" d="M6.57845 342.192C103.594 364.153 186.335 380.953 245.192 393.581C253.153 395.283 260.895 396.601 268.362 397.918C428.352 426.523 459.154 420.154 532.78 460.068C610.25 502.014 623.537 545.168 707.43 566.91C755.486 579.183 805.816 579.503 854.025 567.843C898.387 557.137 922.325 534.297 945.605 509.207C970.202 482.524 993.262 452.547 1036.14 426.852C1139.47 365.086 1256.03 379.196 1270.58 384.851C1345.69 413.895 1409 448.923 1450.45 499.104C1487.56 544.07 1510.46 589.914 1522.26 611.601C1634.54 817.761 1539.06 969.898 1653.54 1047.91C1707.18 1084.48 1778.12 1084.21 1827.42 1080.31C1837.74 1079.48 1846.97 1078.5 1854.87 1077.67C1964.68 1065.92 1996.31 1014.75 2105.4 985.984C2198.3 961.497 2238.43 985.435 2305.47 993.122C2330.52 995.919 2355.78 996.048 2380.86 993.506C2490.22 983.294 2547.38 939.097 2615.24 885.841C2671.57 841.919 2734.22 791.847 2834.86 751.164C2912.38 719.815 3027.02 687.586 3184.82 693.571" stroke="var(--stroke-0, #00D4AA)" stroke-opacity="0.12" stroke-width="2.05293" stroke-miterlimit="10"/>
<path id="Vector_26" d="M3.39462 339.063C101.399 360.64 183.535 374.476 240.745 383.919C248.762 385.237 256.503 386.335 264.025 387.378C425.882 410.547 458.221 400.829 530.036 439.152C609.098 481.427 620.079 525.349 705.235 547.31C753.57 559.741 804.245 559.892 852.653 547.75C897.345 536.275 921.118 513.106 944.013 487.356C968.062 459.905 990.737 429.324 1034.28 403.355C1139.75 340.491 1258.78 364.264 1272.29 365.856C1354.64 375.684 1412.46 436.791 1453.47 490.596C1481.21 528.131 1504.91 568.489 1524.19 610.998C1631.25 832.147 1531.54 991.585 1644.98 1073.5C1698.56 1112.26 1770.49 1111.93 1819.63 1107.71C1830 1106.83 1839.34 1105.73 1847.08 1104.85C1958.2 1091.95 1988.02 1037.76 2098.65 1006.85C2193.03 980.275 2232.67 1004.6 2300.31 1011.41C2325.61 1013.93 2351.11 1013.66 2376.35 1010.58C2485.83 998.229 2544.03 950.189 2611.78 894.352C2668.01 847.74 2730.27 795.966 2831.4 754.954C2909.03 723.384 3024.66 691.76 3184.82 701.423" stroke="var(--stroke-0, #00D4AA)" stroke-opacity="0.12" stroke-width="2.05293" stroke-miterlimit="10"/>
<path id="Vector_27" d="M0.209882 335.933C99.0374 356.576 180.68 367.886 236.298 374.365C420.337 395.777 454.048 379.855 527.29 418.287C607.45 460.398 616.949 505.638 702.984 528.093C751.589 540.733 802.619 540.733 851.225 528.093C943.354 502.838 945.88 431.354 1032.41 379.855C1139.97 315.838 1262.24 344.003 1273.99 346.913C1430.57 385.345 1503.6 557.247 1526.55 610.448C1628.28 846.091 1524.35 1013.27 1636.36 1099.08C1701.36 1148.88 1794.92 1137.52 1839.5 1132.03C1952 1118.3 1980 1060.98 2092.06 1027.71C2218.34 990.157 2246.18 1044.18 2372.07 1027.71C2572.91 1001.19 2605.14 849.825 2827.78 758.686C2905.47 726.897 3022.19 695.932 3184.65 709.273" stroke="var(--stroke-0, #00D4AA)" stroke-opacity="0.12" stroke-width="2.05293" stroke-miterlimit="10"/>
<path id="Vector_28" d="M3.17509 342.796C100.246 363.439 180.516 375.738 236.134 382.546C415.286 405.166 450.26 390.232 523.063 428.719C601.741 470.445 612.227 514.368 696.121 536.988C743.71 549.561 793.666 550.202 841.562 538.855C932.484 517.387 935.997 447.661 1021.21 398.138C1126.46 336.537 1245.05 362.177 1258.78 364.428C1387.2 385.236 1458.03 511.787 1492.89 579.318C1500.03 593.099 1505.19 604.958 1509.36 613.523C1613.68 836.593 1515.18 997.24 1625.54 1078.28C1691.42 1126.54 1785.75 1114.4 1832.2 1109.19C1874.76 1104.51 1916.02 1091.65 1953.7 1071.3C1992.13 1052.03 2028.1 1030.29 2087.23 1015.85C2105.35 1011.46 2121.49 1009.04 2135.98 1006.96C2223.83 994.275 2257.71 1025.51 2363.56 1006.68C2404.51 999.494 2443.94 985.403 2480.18 965.012C2578.51 910.109 2640 811.283 2792.25 739.141C2801.18 734.895 2810.52 730.759 2820.25 726.733C2898.66 694.12 3017.14 661.673 3182.07 674.136" stroke="var(--stroke-0, #00D4AA)" stroke-opacity="0.12" stroke-width="2.05293" stroke-miterlimit="10"/>
<path id="Vector_29" d="M6.13939 349.659C101.233 370.303 180.35 383.095 236.023 390.672C410.179 414.445 446.251 400.609 518.835 439.206C596.085 480.054 607.505 523.592 689.038 545.828C735.65 558.366 784.569 559.683 831.789 549.671C921.337 531.718 926.114 464.242 1009.95 416.366C1112.95 357.565 1228.42 376.507 1243.46 381.942C1362.27 424.492 1439.36 520.572 1475.27 584.205C1482.57 597.162 1487.62 608.527 1491.74 616.543C1598.47 827.315 1505.79 981.044 1614.39 1057.47C1680.83 1104.14 1776.2 1091.29 1824.51 1086.29C1867.41 1081.89 1909.22 1070.09 1948.1 1051.43C1987.14 1034.03 2023.65 1015.19 2082.07 1004.05C2100.24 1000.53 2116.49 999.217 2130.99 997.13C2218.56 984.448 2250.95 1009.1 2354.67 985.601C2395.15 976.272 2433.91 960.635 2469.53 939.263C2564.18 884.36 2628.75 782.075 2784.07 707.517C2793.13 703.235 2802.57 698.952 2812.4 694.779C2891.46 661.344 3011.7 627.414 3179.16 638.943" stroke="var(--stroke-0, #00D4AA)" stroke-opacity="0.12" stroke-width="2.05293" stroke-miterlimit="10"/>
<path id="Vector_30" d="M9.1046 356.523C102.222 377.111 180.131 390.672 235.749 399.072C404.964 423.834 442.244 411.261 514.498 449.858C590.265 490.047 602.674 532.761 682.23 554.887C727.84 567.317 775.682 569.195 822.126 560.377C909.973 545.828 916.287 480.603 998.753 434.595C1099.5 378.374 1211.29 392.759 1228.25 399.347C1322.59 437.159 1402.8 503.447 1457.7 588.982C1465.16 601.115 1470.16 611.986 1474.17 619.508C1583.21 817.543 1496.46 964.958 1603.14 1036.77C1670.34 1081.9 1766.59 1068.23 1816.77 1063.56C1860.02 1059.34 1902.37 1048.59 1942.39 1031.66C1982.14 1016.13 2019.26 1000.26 2076.8 992.299C2095.13 989.774 2111.44 989.499 2125.94 987.413C2213.4 974.675 2244.03 992.903 2345.55 964.628C2385.48 953.11 2423.57 935.954 2458.65 913.678C2549.63 858.391 2617.55 753.197 2775.62 676.003C2784.73 671.611 2794.28 667.237 2804.28 662.881C2884 628.677 3006.05 593.264 3175.98 603.915" stroke="var(--stroke-0, #00D4AA)" stroke-opacity="0.12" stroke-width="2.05293" stroke-miterlimit="10"/>
<path id="Vector_31" d="M12.0688 363.33C103.21 383.974 179.966 398.248 235.694 407.253C399.967 433.002 438.51 421.692 510.215 460.344C584.445 499.929 598.061 541.71 675.202 563.781C719.855 576.275 766.693 578.898 812.462 571.467C899.046 560.487 906.458 497.348 987.607 453.151C1086.1 399.072 1192.89 420.594 1213.04 416.915C1329.17 440.359 1402.19 537.702 1440.18 593.923C1447.81 605.178 1452.7 615.5 1456.98 622.582C1568.44 808.044 1487.62 948.761 1592.32 1015.85C1660.4 1059.45 1757.36 1045.01 1809.47 1040.56C1853.1 1036.54 1896.01 1026.84 1937.12 1011.68C1977.64 998.009 2015.19 985.161 2072.02 980.33C2090.47 978.738 2106.83 979.561 2121.43 977.475C2208.79 964.738 2237.66 976.322 2337.32 943.49C2379.54 929.545 2414.18 909.56 2448.66 887.818C2536.07 832.421 2607.01 723.713 2768.09 644.269C2777.25 639.767 2786.91 635.283 2797.08 630.818C2877.52 595.735 3001.33 558.84 3173.73 568.612" stroke="var(--stroke-0, #00D4AA)" stroke-opacity="0.12" stroke-width="2.05293" stroke-miterlimit="10"/>
<path id="Vector_32" d="M14.9797 370.193C103.979 390.781 179.747 405.77 235.749 415.103C394.972 441.786 434.503 432.013 506.207 470.446C578.901 509.536 593.34 550.329 668.559 572.291C712.173 584.778 757.912 588.031 802.855 581.844C887.792 573.718 896.686 513.38 976.462 471.049C1072.65 420.045 1175.54 439.645 1197.95 434.319C1310.61 455.622 1383.58 546.212 1422.72 598.699C1430.52 609.131 1435.35 618.958 1439.74 625.547C1553.56 798.326 1478.84 932.399 1581.45 994.934C1650.41 1036.99 1748.14 1021.73 1802.06 1017.61C1856.96 1013.44 1895.67 1002.07 1931.79 991.75C1973.08 979.945 2011.52 962.816 2067.13 968.361C2083.58 970.133 2100.17 969.856 2116.55 967.537C2203.84 954.8 2230.86 960.016 2328.59 922.297C2369.49 906.54 2403.53 884.853 2438.4 861.904C2522.23 806.562 2596.19 694.505 2760.24 612.48C2769.5 607.868 2779.28 603.256 2789.56 598.644C2870.66 562.792 2996.22 524.415 3171.15 533.255" stroke="var(--stroke-0, #00D4AA)" stroke-opacity="0.12" stroke-width="2.05293" stroke-miterlimit="10"/>
<path id="Vector_33" d="M17.9439 377.112C105.187 397.7 179.582 413.402 235.365 423.34C389.81 450.791 430.604 442.446 501.979 480.988C573.355 519.53 588.673 559.28 661.641 581.296C725.22 600.457 778.202 596.339 793.411 592.771C874.504 573.554 887.022 529.907 965.481 489.443C1059.37 441.019 1158.47 458.862 1182.96 451.944C1292.11 471.16 1364.96 554.778 1405.43 603.641C1413.33 613.249 1418.11 622.583 1422.56 628.732C1538.74 788.829 1470.27 916.094 1570.8 974.291C1640.75 1014.81 1739.08 998.723 1794.92 994.88C1850.76 991.037 1889.9 980.715 1926.69 971.986C1968.69 962.048 2008.44 947.169 2062.47 956.668C2078.77 959.683 2095.45 960.072 2111.88 957.821C2199.07 945.083 2224.27 943.93 2320.02 901.38C2359.66 883.811 2392.93 860.368 2427.85 836.43C2508.18 781.527 2585.21 665.682 2752.17 581.076C2761.51 576.355 2771.39 571.633 2781.82 566.911C2863.63 530.236 2990.95 490.376 3168.35 498.282" stroke="var(--stroke-0, #00D4AA)" stroke-opacity="0.12" stroke-width="2.05293" stroke-miterlimit="10"/>
<path id="Vector_34" d="M20.9089 383.809C106.175 404.562 179.362 421.033 235.2 431.355C384.704 459.465 426.706 452.712 497.752 491.254C567.48 529.137 583.951 568.118 654.778 590.079C716.6 609.24 768.1 606.88 783.528 603.476C863.029 585.797 876.865 546.267 954.061 507.67C1045.64 461.771 1140.73 477.967 1167.53 469.238C1273.22 486.313 1345.8 562.573 1387.64 608.307C1393.81 615.747 1399.61 623.499 1404.99 631.531C1523.42 778.945 1461.38 899.348 1559.49 953.262C1630.48 992.189 1729.42 975.224 1787.12 971.765C1842.63 968.361 1883.42 958.972 1920.92 951.89C1963.69 943.819 2004.76 931.576 2057.14 944.588C2073.36 948.882 2090.25 949.964 2106.88 947.772C2194.02 934.98 2217.35 927.568 2311.18 880.077C2349.62 860.696 2382.01 835.605 2417.2 810.46C2494.07 755.557 2574.12 636.417 2743.99 549.231C2753.4 544.4 2763.39 539.568 2773.97 534.737C2856.33 497.238 2985.52 455.896 3165.44 462.924" stroke="var(--stroke-0, #00D4AA)" stroke-opacity="0.12" stroke-width="2.05293" stroke-miterlimit="10"/>
<path id="Vector_35" d="M23.8731 390.563C107.163 411.206 179.142 428.226 235.089 439.426C379.597 468.305 422.807 463.089 493.798 501.631C562.044 538.91 579.503 576.903 648.134 598.755C708.528 617.916 758.271 617.312 774.139 614.073C852.103 598.096 867.476 562.519 943.134 525.734C1032.41 482.415 1123.82 496.91 1152.59 486.698C1254.77 501.631 1326.97 571.084 1370.4 612.975C1376.63 619.8 1382.48 626.967 1387.91 634.442C1508.7 769.119 1453.08 882.548 1548.78 932.29C1620.82 969.679 1720.3 951.946 1779.87 948.761C1835.88 945.687 1877.6 937.286 1915.76 931.851C1961.12 925.613 2007.13 925.854 2052.42 932.565C2071.74 935.036 2088 939.867 2102.33 938.055C2189.35 925.208 2210.82 911.647 2302.73 859.16C2339.73 838.022 2371.52 811.119 2407.04 784.876C2480.56 730.412 2563.47 607.484 2736.47 517.718C2745.91 512.832 2756.07 507.835 2766.83 502.839C2849.96 464.407 2980.96 421.693 3163.18 427.842" stroke="var(--stroke-0, #00D4AA)" stroke-opacity="0.12" stroke-width="2.05293" stroke-miterlimit="10"/>
<path id="Vector_36" d="M27.1134 400.004C108.426 420.593 179.253 438.436 235.2 450.131C374.547 479.613 418.965 475.935 489.297 514.642C556.115 551.317 574.508 588.376 640.997 610.173C699.415 629.334 747.841 630.432 764.147 627.412C840.684 613.302 857.21 581.458 931.715 546.54C1018.63 505.802 1106.26 518.595 1137.11 506.79C1235.94 519.583 1307.31 581.788 1352.56 620.549C1358.85 626.75 1364.77 633.313 1370.29 640.205C1493 762.144 1444.36 868.546 1537.53 914.171C1610.72 950.022 1710.64 931.52 1772.13 928.61C1828.52 925.92 1871.24 918.508 1910.05 914.72C1954.31 910.382 1995.54 914.061 2047.31 923.449C2066.91 927.018 2083.11 932.783 2097.39 930.696C2184.3 917.849 2203.95 898.139 2293.94 840.546C2329.63 817.651 2360.65 789.047 2396.45 761.595C2466.67 707.68 2552.43 580.964 2728.13 488.563C2737.68 483.512 2747.89 478.46 2758.82 473.3C2842.6 434.209 2975.19 389.902 3160.11 395.118" stroke="var(--stroke-0, #00D4AA)" stroke-opacity="0.12" stroke-width="2.05293" stroke-miterlimit="10"/>
<path id="Vector_37" d="M29.8036 423.778C109.14 444.367 178.759 462.759 234.761 475.222C369.441 505.254 415.066 503.388 485.069 541.82C550.405 577.891 569.786 614.072 634.134 635.759C690.795 654.92 737.683 657.72 754.484 654.92C829.593 642.786 847.327 614.566 920.514 581.515C1005.07 543.083 1088.91 554.502 1121.9 540.996C1217.11 551.977 1282.5 615.445 1335.04 642.182C1342.01 649.649 1348.05 655.689 1352.88 659.971C1477.68 769.118 1436.01 868.602 1526.55 910.109C1600.94 944.314 1701.31 925.043 1764.67 922.462C1821.44 920.156 1865.14 913.733 1904.62 911.482C1949.64 909.011 1991.64 916.313 2042.15 928.227C2062.03 932.894 2078.17 939.592 2092.39 937.451C2179.25 924.603 2197.04 899.019 2285.05 836.1C2319.47 811.558 2349.73 781.197 2385.8 752.483C2452.78 699.172 2541.34 568.558 2719.94 473.575C2729.57 468.488 2739.91 463.29 2750.97 457.983C2835.46 418.343 2969.98 372.554 3157.2 377.111" stroke="var(--stroke-0, #00D4AA)" stroke-opacity="0.12" stroke-width="2.05293" stroke-miterlimit="10"/>
<path id="Vector_38" d="M32.6039 445.191C110.129 465.78 178.539 484.776 234.596 497.898C364.39 528.424 411.443 528.424 480.842 567.076C544.695 602.488 565.065 637.791 627.216 659.423C682.12 678.529 727.471 682.811 744.821 680.45C818.557 670.403 837.444 645.752 909.534 614.567C991.89 578.88 1071.78 588.378 1106.91 573.28C1198.6 581.845 1263.34 639.548 1317.69 661.783C1323.39 667.465 1329.42 672.8 1335.75 677.76C1462.47 774.225 1427.94 866.242 1515.79 904.07C1591.44 936.628 1692.14 916.588 1757.36 914.392C1814.57 912.416 1859.27 906.98 1899.35 906.486C1945.14 905.882 1987.96 916.918 2037.38 931.247C2057.47 937.067 2073.61 944.644 2087.83 942.228C2174.53 929.326 2190.56 897.647 2276.59 829.622C2309.54 803.433 2339.24 771.37 2375.42 741.393C2439.16 688.796 2530.47 554.174 2711.98 456.556C2721.65 451.066 2732.13 446.015 2743.33 440.634C2828.49 399.841 2964.6 352.789 3154.51 356.029" stroke="var(--stroke-0, #00D4AA)" stroke-opacity="0.12" stroke-width="2.05293" stroke-miterlimit="10"/>
<path id="Vector_39" d="M35.6777 466.603C111.171 487.191 178.429 506.792 234.431 520.682C359.338 551.538 407.269 553.349 476.613 592.056C538.984 626.865 560.342 661.289 620.352 682.811C673.61 701.917 717.313 703.509 735.157 705.76C807.356 714.984 827.561 676.662 898.113 647.398C977.998 614.456 1054.21 622.088 1091.49 605.343C1179.72 611.766 1243.68 663.485 1300.12 681.218C1305.87 686.343 1311.96 691.075 1318.35 695.383C1446.93 779.11 1419.65 863.716 1505.02 897.811C1581.89 928.666 1682.97 907.968 1750.12 906.046C1807.77 904.454 1853.39 900.062 1894.13 901.16C1940.69 902.423 1984.23 917.301 2032.6 934.102C2052.97 941.074 2069 949.474 2083.22 947.388C2169.86 934.431 2184.13 896.822 2268.08 823.527C2299.98 795.691 2328.75 761.871 2365.32 730.631C2425.71 678.803 2519.93 540.118 2704.35 439.645C2714.12 434.375 2724.68 428.884 2736.03 423.174C2821.85 381.558 2959.76 332.804 3152.15 335.33" stroke="var(--stroke-0, #00D4AA)" stroke-opacity="0.12" stroke-width="2.05293" stroke-miterlimit="10"/>
<path id="Vector_40" d="M38.6429 488.069C112.16 508.878 178.154 528.807 234.267 543.412C354.287 574.597 403.371 578.33 472.386 617.091C533.275 651.241 555.621 684.567 613.435 706.528C664.99 725.635 707.211 728.49 725.44 731.399C795.827 742.38 817.624 707.901 886.913 680.504C964.437 649.814 1036.91 656.073 1076.28 637.68C1160.99 642.017 1224.52 687.642 1282.39 700.928C1288.2 705.508 1294.34 709.638 1300.78 713.281C1431.12 784.326 1411.41 861.52 1493.6 891.881C1571.95 920.925 1673.2 899.567 1742.16 898.03C1800.24 896.767 1846.86 893.418 1888.26 896.163C1935.58 899.293 1979.84 918.125 2027.16 936.956C2047.75 945.192 2063.78 954.415 2077.95 952.274C2164.48 939.317 2177.11 895.834 2259.13 817.213C2289.77 787.73 2317.77 752.208 2354.56 719.65C2412.1 668.645 2508.73 525.843 2696.06 423.174C2705.91 417.72 2716.58 412.23 2728.07 406.703C2814.6 364.318 2954.22 314.082 3149.13 315.729" stroke="var(--stroke-0, #00D4AA)" stroke-opacity="0.12" stroke-width="2.05293" stroke-miterlimit="10"/>
<path id="Vector_41" d="M41.6081 509.482C112.984 530.016 177.935 550.769 234.102 566.142C349.401 597.546 399.474 603.366 468.159 642.073C527.62 675.618 550.899 708.34 606.572 729.917C656.37 749.024 697.109 753.141 715.777 756.71C784.297 769.722 807.741 738.757 875.713 713.282C950.876 685.116 1019.56 689.728 1061.07 669.689C1142.33 671.885 1204.92 711.525 1264.87 720.309C1270.75 724.324 1276.96 727.832 1283.43 730.796C1415.2 789.377 1403.34 858.555 1482.62 885.567C1561.91 912.58 1663.81 891.058 1734.69 889.685C1793.16 888.752 1840.76 886.391 1882.93 890.783C1930.97 895.779 1975.94 918.235 2022.28 939.647C2043.09 949.145 2059.12 959.082 2073.23 956.996C2159.65 943.984 2170.68 894.736 2250.35 810.68C2279.83 779.605 2307.06 742.38 2344.07 708.45C2398.54 658.434 2497.8 511.403 2687.99 405.88C2697.87 400.39 2708.69 394.899 2720.33 388.915C2807.41 345.487 2948.84 293.768 3146.22 294.756" stroke="var(--stroke-0, #00D4AA)" stroke-opacity="0.12" stroke-width="2.05293" stroke-miterlimit="10"/>
<path id="Vector_42" d="M44.5724 530.839C114.136 551.373 177.77 572.675 233.992 588.762C344.239 620.386 395.575 628.237 463.931 666.999C521.909 699.941 546.287 731.729 599.654 753.032C647.805 772.138 687.061 777.519 706.113 781.746C772.822 796.515 797.803 769.393 864.567 745.785C937.315 720.09 1002.21 723.165 1045.75 701.478C1123.49 701.478 1185.37 735.133 1247.19 739.416C1253.19 742.865 1259.47 745.786 1265.97 748.145C1399.72 794.374 1395.33 855.426 1471.64 879.144C1552.85 904.344 1654.42 881.999 1727.22 881.23C1786.08 880.571 1834.67 879.254 1877.38 885.293C1926.19 892.156 1971.76 918.839 2017.17 942.173C2038.2 953.153 2054.18 963.64 2068.29 961.498C2154.65 948.541 2164.09 893.474 2241.56 803.982C2269.84 771.314 2296.47 732.608 2333.47 697.086C2384.97 648.057 2486.77 496.8 2679.86 388.641C2689.86 383.041 2700.75 377.257 2712.53 371.291C2800.38 327.369 2943.57 274.113 3143.47 273.948" stroke="var(--stroke-0, #00D4AA)" stroke-opacity="0.12" stroke-width="2.05293" stroke-miterlimit="10"/>
<path id="Vector_43" d="M47.5376 552.36C115.125 572.894 177.551 594.69 233.828 611.6C339.244 643.334 391.732 653.327 459.703 692.198C516.2 724.426 541.456 755.391 592.791 776.584C626.397 789.762 661.079 800.012 696.45 807.22C761.347 823.691 787.866 800.412 853.366 778.725C923.699 755.501 985.136 756.764 1030.65 733.65C1104.88 731.618 1166.1 759.18 1229.79 759.015C1235.88 761.882 1242.22 764.179 1248.73 765.878C1383.69 799.698 1387.42 852.46 1460.66 872.939C1543.4 896.053 1645.08 874.696 1719.7 872.939C1779 871.566 1828.52 872.39 1871.95 880.021C1921.36 888.751 1967.7 919.496 2012.17 944.917C2033.37 956.995 2049.4 968.415 2063.45 966.274C2149.71 953.262 2157.67 892.484 2232.89 797.502C2259.96 763.298 2285.76 722.779 2323.04 685.939C2371.52 637.954 2475.84 482.414 2671.85 371.62C2681.9 366.129 2692.88 360.035 2704.79 353.941C2793.35 309.085 2938.3 254.402 3140.68 253.358" stroke="var(--stroke-0, #00D4AA)" stroke-opacity="0.12" stroke-width="2.05293" stroke-miterlimit="10"/>
<path id="Vector_44" d="M50.5018 573.829C116.387 594.363 177.385 616.598 233.662 634.222C334.247 665.956 387.833 678.145 455.53 717.071C510.434 748.64 536.733 778.782 585.873 799.865C618.623 813.397 652.359 824.409 686.787 832.806C749.981 850.87 777.927 831.489 842.165 811.833C910.082 790.97 967.567 790.915 1015.44 765.99C1086.21 761.762 1146.72 783.339 1212.22 778.672C1218.42 780.936 1224.82 782.627 1231.33 783.723C1367.82 805.41 1379.57 849.607 1449.68 866.956C1534.01 887.819 1635.7 866.187 1712.23 864.87C1771.97 863.882 1822.42 865.693 1866.51 874.972C1916.81 885.568 1963.53 920.377 2007.23 947.883C2028.48 961.28 2044.62 973.413 2058.62 971.272C2144.82 958.205 2151.3 891.717 2224.16 791.245C2250.13 755.448 2275.22 713.338 2312.55 675.07C2358.23 628.183 2464.97 468.306 2663.94 354.821C2674.04 349.056 2685.19 343.017 2697.27 336.758C2786.54 291.134 2933.36 234.968 3138.09 232.991" stroke="var(--stroke-0, #00D4AA)" stroke-opacity="0.12" stroke-width="2.05293" stroke-miterlimit="10"/>
<path id="Vector_45" d="M53.4118 595.295C117.101 615.774 177.221 638.504 233.498 657.116C329.086 688.905 383.99 703.289 451.302 742.27C504.834 773.236 532.012 802.664 579.01 823.472C610.904 837.105 643.661 848.623 677.068 857.951C738.616 877.551 767.99 862.178 830.8 844.445C896.356 826.052 950.052 824.46 1000.07 797.832C1067.33 791.518 1127.12 807.056 1194.54 797.832C1200.85 799.512 1207.3 800.597 1213.81 801.071C1351.84 810.734 1371.44 845.982 1438.53 860.422C1524.46 878.979 1626.14 857.127 1704.6 856.359C1764.72 855.7 1816.17 858.5 1860.91 869.426C1911.97 881.889 1959.19 920.76 2002.07 950.353C2023.43 965.122 2039.63 977.804 2053.63 975.773C2139.72 962.706 2144.88 890.453 2215.32 784.491C2240.14 747.157 2264.73 703.509 2301.9 663.704C2344.95 617.97 2453.88 453.975 2655.82 337.58C2665.97 331.706 2677.23 325.557 2689.47 319.188C2779.4 272.795 2927.87 215.092 3135.24 212.401" stroke="var(--stroke-0, #00D4AA)" stroke-opacity="0.12" stroke-width="2.05293" stroke-miterlimit="10"/>
<path id="Vector_46" d="M56.3768 616.762C118.089 637.296 177.166 660.355 233.333 679.955C324.364 711.634 380.092 728.38 447.075 767.361C499.179 797.667 527.29 826.162 572.092 846.97C603.142 860.913 634.966 873.066 667.406 883.371C727.306 904.509 757.997 893.089 819.765 877.332C882.904 861.3 932.867 858.225 985.026 830.005C1048.82 821.55 1107.9 831.048 1177.19 817.432C1183.63 818.293 1190.13 818.751 1196.63 818.805C1336.08 825.009 1363.76 842.688 1427.72 854.327C1515.24 870.249 1616.97 847.409 1697.24 848.178C1757.64 848.782 1810.24 851.692 1855.64 864.265C1907.47 878.594 1955.07 921.583 1997.24 953.207C2018.71 969.349 2035.01 982.745 2048.96 980.659C2134.99 967.592 2138.84 889.685 2206.75 778.232C2230.47 739.305 2254.36 694.12 2291.64 652.669C2331.72 608.087 2443.23 439.48 2647.8 320.67C2658.09 314.667 2669.41 308.427 2681.79 301.948C2772.38 254.622 2922.65 195.491 3132.49 191.758" stroke="var(--stroke-0, #00D4AA)" stroke-opacity="0.12" stroke-width="2.05293" stroke-miterlimit="10"/>
<path id="Vector_47" d="M59.3422 638.175C119.078 658.653 177.002 682.097 233.169 702.631C319.478 734.145 376.194 753.251 442.848 792.342C493.47 821.99 522.514 849.661 565.229 870.359C604.76 889.575 636.605 900.556 657.743 908.791C716.051 931.356 748.06 923.945 808.565 910.274C863.295 897.707 917.158 881.624 969.818 862.124C1027.58 841.81 1087.86 821.605 1159.62 836.923C1166.14 837.83 1172.76 837.682 1179.22 836.484C1320.55 822.539 1355.85 839.229 1416.74 848.179C1505.9 861.245 1607.59 838.735 1689.78 839.943C1750.78 840.822 1804.14 844.829 1850.21 858.994C1902.75 875.465 1950.79 922.352 1992.24 956.008C2013.77 973.522 2030.24 987.577 2044.18 985.436C2130.05 972.314 2132.69 888.697 2197.92 771.754C2220.54 731.235 2243.87 684.623 2280.99 641.579C2318.1 598.535 2432.36 425.48 2639.62 303.596C2649.94 297.611 2661.58 291.188 2673.93 284.544C2765.24 236.449 2917.22 175.837 3129.64 171.17" stroke="var(--stroke-0, #00D4AA)" stroke-opacity="0.12" stroke-width="2.05293" stroke-miterlimit="10"/>
<path id="Vector_48" d="M62.3064 659.641C120.066 680.12 176.891 703.563 233.058 725.524C314.591 756.874 372.35 778.396 438.62 817.542C488.033 846.531 517.792 873.378 558.311 893.967C596.14 913.238 626.886 925.262 648.079 934.211C704.85 958.203 738.067 954.744 797.364 943.16C855.617 931.795 894.27 917.301 954.609 894.296C1008.96 873.543 1066.83 869.535 1142.11 856.413C1149.03 855.205 1155.67 855.315 1161.87 854.217C1304.95 828.522 1347.94 835.66 1405.76 842.029C1496.51 851.966 1598.25 830.115 1682.25 831.707C1743.69 832.915 1798.05 837.966 1844.77 853.668C1898.08 871.786 1946.45 922.956 1987.25 958.697C2008.82 977.584 2025.68 992.298 2039.35 990.157C2125.11 977.035 2126.59 887.653 2189.35 765.055C2210.93 722.944 2233.77 675.014 2270.66 630.213C2305.42 588.047 2421.65 410.875 2631.77 286.355C2642.2 280.261 2653.73 273.728 2666.41 266.92C2758.38 218.056 2912.16 155.961 3127 150.361" stroke="var(--stroke-0, #00D4AA)" stroke-opacity="0.12" stroke-width="2.05293" stroke-miterlimit="10"/>
<path id="Vector_49" d="M65.5455 681.053C121.328 701.532 177.111 725.415 233.168 748.09C310.034 779.22 368.726 802.993 434.666 842.413C482.378 870.743 513.344 896.767 551.722 917.301C587.794 936.517 617.223 949.529 638.69 959.411C693.979 984.832 728.404 985.326 786.492 975.882C842.275 966.768 877.579 952 939.675 926.47C990.791 905.277 1047.62 895.34 1124.81 875.959C1131.68 874.257 1138.48 873.543 1144.8 871.951C1289.74 834.562 1340.48 842.139 1395.05 835.88C1488.02 825.67 1581.56 821.561 1675.06 823.582C1736.94 825.064 1792.23 831.158 1839.77 848.617C1893.85 868.602 1942.5 923.889 1982.53 961.663C2004.1 981.922 2020.96 997.24 2034.79 995.153C2120.5 981.977 2120.77 886.885 2180.95 759.071C2201.48 715.423 2223.94 666.175 2260.51 619.562C2292.62 578.659 2411 396.93 2624.03 269.83C2634.51 263.626 2645.99 256.983 2659 250.065C2751.68 200.323 2907.17 136.745 3124.53 130.321" stroke="var(--stroke-0, #00D4AA)" stroke-opacity="0.12" stroke-width="2.05293" stroke-miterlimit="10"/>
<path id="Vector_50" d="M68.2359 696.481C122.042 716.96 176.781 741.007 232.948 764.835C305.202 795.636 364.719 822.154 430.604 861.41C476.888 888.861 508.787 914.336 545.024 934.705C579.339 953.976 607.505 967.976 629.137 978.628C683.108 1005.42 718.576 1009.87 775.457 1002.57C828.824 995.703 860.943 980.934 924.631 952.164C972.618 930.478 1028.62 914.83 1107.46 889.026C1114.33 886.775 1121.13 885.293 1127.61 883.151C1274.54 834.178 1332.79 829.566 1384.23 823.307C1478.28 811.735 1573.03 806.91 1667.76 808.868C1730.02 810.679 1786.3 817.817 1834.28 836.923C1889.19 858.884 1938.05 918.125 1977.69 957.71C1999.22 979.341 2016.13 995.373 2030.13 993.232C2115.72 980 2114.95 879.198 2172.38 745.839C2191.88 700.544 2214.11 650.088 2250.18 601.664C2279.78 561.969 2400.24 375.738 2616.17 246.002C2626.72 239.688 2638.52 232.935 2651.48 225.908C2744.82 175.342 2902.12 110.282 3121.95 102.925" stroke="var(--stroke-0, #00D4AA)" stroke-opacity="0.12" stroke-width="2.05293" stroke-miterlimit="10"/>
<path id="Vector_51" d="M71.0368 704.772C122.866 725.251 176.673 749.299 232.4 774.389C300.042 804.861 360.657 833.794 425.773 873.215C470.63 900.172 503.407 924.714 537.503 944.918C570.116 964.244 597.019 979.123 618.871 990.872C671.524 1019.04 708.035 1027.38 763.653 1022.28C814.604 1017.61 843.759 1003.23 908.82 971.107C953.732 949.146 1009.08 927.624 1089.29 895.341C1096.21 892.596 1103.07 890.345 1109.6 887.654C1258.72 826.986 1324.06 810.021 1372.65 803.927C1467.25 792.123 1569.98 784.546 1659.63 787.456C1722.34 789.488 1779.55 797.723 1828.25 818.476C1883.86 842.195 1932.95 905.608 1972.09 947.553C1993.62 970.613 2010.91 987.193 2024.69 985.052C2110.23 971.875 2108.37 865.254 2163.11 726.459C2181.55 679.572 2203.68 627.963 2239.09 577.617C2266.22 539.185 2388.71 348.452 2607.56 216.081C2618.21 209.712 2630.07 202.794 2643.19 195.602C2737.24 144.268 2896.24 77.7254 3118.6 69.3252" stroke="var(--stroke-0, #00D4AA)" stroke-opacity="0.12" stroke-width="2.05293" stroke-miterlimit="10"/>
<path id="Vector_52" d="M74.1108 712.68C124.019 733.103 176.946 757.151 232.4 783.614C297.228 813.99 360.418 847.747 421.709 884.746C465.138 911.099 498.575 934.872 530.804 954.857C561.605 974.347 587.3 990.049 609.372 1002.73C660.762 1032.32 698.262 1044.51 752.617 1041.66C801.207 1039.13 827.561 1025.46 893.776 989.72C935.832 967.045 990.572 940.033 1071.94 901.326C1078.86 898.032 1085.78 895.012 1092.42 891.828C1243.68 819.466 1315.6 787.238 1361.83 784.218C1458.41 778.069 1560.75 762.257 1652.33 765.716C1715.47 767.967 1773.62 777.41 1822.97 799.756C1879.36 825.34 1928.61 893.091 1967.26 937.013C1988.67 961.445 2006.24 978.685 2020.03 976.598C2105.46 963.312 2102.38 850.925 2154.54 706.695C2172.96 652.667 2197.89 601.081 2228.77 553.077C2253.48 515.798 2377.95 320.617 2599.65 185.611C2610.36 179.132 2622.32 172.105 2635.61 164.803C2730.32 112.645 2891.14 44.62 3115.97 35.4512" stroke="var(--stroke-0, #00D4AA)" stroke-opacity="0.12" stroke-width="2.05293" stroke-miterlimit="10"/>
<path id="Vector_53" d="M77.076 720.255C194.694 770.403 308.469 829.124 417.482 895.944C592.846 1003.5 640.777 1061.59 741.417 1060.65C814.714 1059.94 832.009 1028.75 1054.37 906.925C1221.61 815.292 1305.23 769.667 1350.85 764.177C1514.8 745.016 1694 721.298 1817.54 780.648C1906.59 823.417 1976.76 973.248 2015.19 967.318C2129.12 949.639 2084.15 744.961 2218.34 528.094C2240.69 491.968 2367.08 292.396 2591.69 154.754C2678.88 101.333 2853.91 12.5002 3113.28 1.02546" stroke="var(--stroke-0, #00D4AA)" stroke-opacity="0.12" stroke-width="2.05293" stroke-miterlimit="10"/>
</g>
</svg>
