<svg preserveAspectRatio="none" width="100%" height="100%" overflow="visible" style="display: block;" viewBox="0 0 747.253 225.403" fill="none" xmlns="http://www.w3.org/2000/svg">
<path id="Vector" d="M645.667 5.33333C645.667 8.27885 648.055 10.6667 651.001 10.6667C653.946 10.6667 656.334 8.27885 656.334 5.33333C656.334 2.38781 653.946 0 651.001 0C648.055 0 645.667 2.38781 645.667 5.33333ZM736.586 220.069C736.586 223.015 738.974 225.403 741.92 225.403C744.865 225.403 747.253 223.015 747.253 220.069C747.253 217.124 744.865 214.736 741.92 214.736C738.974 214.736 736.586 217.124 736.586 220.069ZM0.00121803 4.5404L0 5.5404L651 6.33333L651.001 5.33333L651.002 4.33333L0.00243605 3.5404L0.00121803 4.5404ZM651 5.5404L650.079 5.93061L740.999 220.459L741.92 220.069L742.84 219.679L651.921 5.15019L651 5.5404Z" fill="var(--stroke-0, #00D4AA)"/>
</svg>
