<svg preserveAspectRatio="none" width="100%" height="100%" overflow="visible" style="display: block;" viewBox="0 0 723.333 51.1713" fill="none" xmlns="http://www.w3.org/2000/svg">
<g id="Frame 2087327227">
<path id="Line 13" d="M447.668 45.8445C447.664 42.899 450.049 40.5082 452.994 40.5046C455.94 40.5011 458.331 42.886 458.334 45.8315C458.338 48.777 455.953 51.1677 453.007 51.1713C450.062 51.1749 447.671 48.79 447.668 45.8445ZM0.00121803 46.3897L0 45.3897L453 44.838L453.001 45.838L453.002 46.838L0.00243605 47.3897L0.00121803 46.3897Z" fill="var(--stroke-0, #084447)"/>
<path id="Line 18" d="M712.666 5.34511C712.673 8.29062 715.066 10.6732 718.011 10.6667C720.957 10.6602 723.339 8.26707 723.333 5.32156C723.326 2.37605 720.933 -0.00648911 717.988 1.31606e-05C715.042 0.00651547 712.66 2.3996 712.666 5.34511ZM479 5.86093L479.002 6.86093L718.002 6.33333L717.999 5.33333L717.997 4.33334L478.998 4.86093L479 5.86093Z" fill="var(--stroke-0, #084447)"/>
<path id="Line 17" d="M483.495 1.24352C481.083 -0.445956 477.757 0.140433 476.067 2.55326C474.378 4.96609 474.964 8.29167 477.377 9.98115C479.79 11.6706 483.116 11.0842 484.805 8.67141C486.495 6.25858 485.908 2.933 483.495 1.24352ZM480.436 5.61233L479.617 5.03876L453.152 42.8353L453.971 43.4089L454.79 43.9825L481.255 6.18591L480.436 5.61233Z" fill="var(--stroke-0, #084447)"/>
</g>
</svg>
