<svg preserveAspectRatio="none" width="100%" height="100%" overflow="visible" style="display: block;" viewBox="0 0 2460 878.517" fill="none" xmlns="http://www.w3.org/2000/svg">
<g id="Capa 1">
<path id="Vector" d="M63.7121 81.0698C150.068 124.372 226.576 185 288.467 259.174C379.684 369.853 374.722 437.659 462.335 500.886C547.487 562.29 664.36 579.21 759.181 556.014C888.564 524.337 894.416 438.126 1060.27 301.58C1157.8 221.348 1340.7 70.7228 1556.43 85.3104C1665.41 92.689 1773.76 141.625 1874.48 187.084C1997.92 242.805 2015.65 271.429 2082.27 284.617C2161.4 300.307 2283.74 289.155 2459.69 148.919" stroke="var(--stroke-0, #00D4AA)" stroke-opacity="0.5" stroke-miterlimit="10"/>
<path id="Vector_2" d="M61.2949 96.9292C139.109 134.971 209.259 187.007 268.239 250.438C273.879 256.587 279.519 262.905 285.202 269.393C377.352 376.595 373.705 441.348 460.214 503.006C497.923 529.987 540.621 549.202 585.823 559.533C618.2 566.904 651.407 569.983 684.588 568.693C709.401 567.714 734.024 563.944 757.994 557.455C784.703 550.59 810.093 539.357 833.138 524.209C875.545 496.221 905.229 458.438 950.901 411.028C985.304 375.348 1022.73 342.715 1062.77 313.495C1083.97 297.805 1108.74 278.892 1137.36 259.513C1213.95 207.523 1311.95 151.039 1429.54 131.532C1469.45 124.724 1509.99 122.448 1550.4 124.747C1556.6 125.087 1562.74 125.595 1568.81 126.189C1628.86 131.999 1686.06 147.392 1744.5 167.832C1788.22 182.928 1829.57 201.756 1870.57 219.439C1887.75 226.988 1903.1 233.857 1916.97 240.303C2000.72 279.359 2022.47 300.307 2079.68 309.467C2123.15 316.421 2179.38 315.191 2250.75 290.426C2309.27 270.157 2378.56 233.645 2459.69 173.259" stroke="var(--stroke-0, #00D4AA)" stroke-opacity="0.5" stroke-miterlimit="10"/>
<path id="Vector_3" d="M59.0476 112.874C136.056 149.478 205.774 199.768 264.805 261.294C270.459 267.23 276.113 273.308 281.767 279.528C375.062 383.295 372.814 444.91 458.136 505.126C495.936 532.459 538.769 552.045 584.169 562.756C616.737 570.174 650.162 573.142 683.528 571.576C708.378 570.309 732.983 566.038 756.806 558.854C783.383 551.173 808.636 539.491 831.696 524.209C875.799 495.373 907.095 458.819 952.259 414.548C986.823 380.946 1024.69 350.912 1065.27 324.902C1086.48 310.993 1110.69 293.946 1139.02 277.068C1214.5 232.076 1306.52 184.878 1422.93 169.485C1463.15 163.944 1503.79 162.127 1544.34 164.057C1550.62 164.396 1556.81 164.821 1562.91 165.372C1623.98 170.715 1679.74 183.903 1739.37 202.095C1784.28 215.835 1825.24 234.323 1866.59 251.752C1883.76 258.961 1899.28 265.534 1913.49 271.683C1997.5 308.194 2020.02 327.446 2077.01 334.231C2120.43 339.405 2176.24 336.564 2247.99 311.502C2306.6 290.978 2376.78 255.145 2459.69 197.685" stroke="var(--stroke-0, #00D4AA)" stroke-opacity="0.5" stroke-miterlimit="10"/>
<path id="Vector_4" d="M56.3756 128.564C132.754 163.782 202.188 212.43 261.369 272.192C267.009 277.959 272.692 283.811 278.332 289.79C372.856 390.08 371.796 448.642 455.973 507.247C495.836 534.98 535.104 554.953 582.387 566.021C615.174 573.501 648.847 576.356 682.425 574.502C707.322 572.937 731.911 568.148 755.576 560.254C782.034 551.763 807.182 539.632 830.297 524.209C876.011 494.525 908.876 459.286 953.573 418.195C988.33 386.653 1026.66 359.285 1067.77 336.649C1089.19 324.521 1112.68 309.34 1140.67 294.964C1215.43 256.544 1301.1 218.931 1416.31 207.566C1456.85 203.309 1497.63 201.963 1538.36 203.537C1544.68 203.834 1551.08 204.216 1557.02 204.725C1616.93 209.632 1676.24 220.297 1734.11 236.571C1780.21 248.911 1820.83 267.231 1862.69 284.193C1879.86 291.147 1895.51 297.381 1910.1 303.233C1994.32 337.158 2017.64 354.629 2074.38 359.166C2117.8 362.643 2173.31 358.064 2245.32 332.705C2304.05 312.181 2375 276.602 2459.69 221.857" stroke="var(--stroke-0, #00D4AA)" stroke-opacity="0.5" stroke-miterlimit="10"/>
<path id="Vector_5" d="M53.9165 144.38C129.557 178.229 198.624 225.173 257.935 283.047C263.575 288.645 269.3 294.242 274.898 300.009C370.44 396.991 370.864 452.119 453.854 509.409C494.606 537.439 532.56 557.963 580.692 569.286C613.667 576.839 647.564 579.567 681.323 577.385C706.334 575.571 730.969 570.276 754.517 561.653C780.797 552.42 805.814 539.926 828.983 524.463C876.308 493.888 910.955 460.091 955.015 421.799C986.099 394.828 1022.87 371.251 1070.4 348.352C1091.99 337.92 1114.97 324.562 1142.49 312.731C1216.96 280.715 1295.84 252.939 1409.66 245.603C1450.45 242.594 1491.37 241.702 1532.25 242.931C1538.66 243.186 1544.98 243.525 1551.04 243.949C1611.07 247.884 1670.65 256.907 1729.15 270.919C1776.52 281.86 1816.55 300.052 1858.83 316.42C1875.79 323.12 1891.86 329.142 1906.79 334.612C1991.18 366.162 2015.31 381.64 2071.88 383.888C2115.3 385.626 2170.43 379.393 2242.74 353.78C2301.47 332.959 2373.26 298.016 2459.69 246.069" stroke="var(--stroke-0, #00D4AA)" stroke-opacity="0.5" stroke-miterlimit="10"/>
<path id="Vector_6" d="M51.4993 160.201C126.385 192.703 195.068 237.942 254.5 293.906C260.14 299.291 265.865 304.635 271.463 310.147C368.15 403.44 369.888 455.811 451.648 511.49C493.292 539.859 529.931 560.935 578.868 572.511C612.063 580.129 646.212 582.731 680.178 580.229C705.194 578.153 729.762 572.365 753.075 563.055C779.198 553.042 804.107 540.111 827.329 524.508C876.308 493.128 912.778 460.9 956.118 425.406C988.135 399.284 1025.71 378.76 1072.69 360.016C1094.53 351.281 1117.01 339.831 1143.94 330.332C1218.7 304.465 1290.32 286.782 1402.96 283.389C1442.1 282.202 1485.39 280.718 1526.15 282.117C1532.64 282.329 1538.87 282.626 1545.06 282.965C1605.1 285.926 1664.84 293.296 1723.81 305.016C1772.36 314.557 1812.1 332.622 1854.84 348.652C1872.02 355.097 1888 360.652 1903.31 365.911C1987.87 395.298 2012.93 409.716 2069.12 408.825C2112.55 408.147 2167.34 400.895 2239.89 374.901C2298.67 353.698 2371.35 319.477 2459.52 270.371" stroke="var(--stroke-0, #00D4AA)" stroke-opacity="0.5" stroke-miterlimit="10"/>
<path id="Vector_7" d="M49.0396 175.973C123.183 207.162 191.495 250.709 251.065 304.759C256.705 309.933 262.472 315.064 268.028 320.322C365.902 410.222 368.955 459.37 449.486 513.607C491.892 542.231 527.302 563.901 577.13 575.774C610.48 583.41 644.805 585.884 678.906 583.11C704.004 580.745 728.575 574.449 751.718 564.452C777.628 553.616 802.413 540.265 825.717 524.59C876.308 492.32 914.771 461.491 957.178 428.966C990.17 403.522 1028.59 386.305 1074.94 371.675C1097.12 364.636 1121.25 360.565 1145.34 348.31C1223.49 345.045 1284.98 314.385 1396.04 321.594C1435.27 324.181 1479.25 320.577 1519.83 321.594C1526.4 321.806 1532.76 322.018 1538.87 322.315C1604.26 325.411 1654.3 329.015 1718.42 339.278C1768.16 347.377 1807.47 365.357 1850.69 380.878C1867.65 387.069 1883.98 392.327 1899.67 397.289C1984.27 424.089 2010.22 435.454 2066.32 433.333C2109.79 431.595 2164.24 422.011 2237.05 395.804C2295.91 374.601 2369.36 340.677 2459.35 294.412" stroke="var(--stroke-0, #00D4AA)" stroke-opacity="0.5" stroke-miterlimit="10"/>
<path id="Vector_8" d="M46.5793 191.791C119.973 221.665 187.909 263.492 247.629 315.574C253.312 320.578 259.079 325.454 264.592 330.458C363.866 416.881 368.191 462.891 447.492 515.729C490.959 544.649 524.884 566.87 575.517 579.04C609.157 586.772 643.812 589.105 678.184 585.953C706.13 583.62 729.072 575.224 750.869 565.81C776.587 554.172 801.283 540.399 824.699 524.634C876.901 491.515 917.527 462.297 958.958 432.529C992.884 408.061 1032.32 393.939 1077.7 383.296C1100.34 377.995 1123.92 376.765 1147.29 366.079C1225.44 372.101 1279.72 355.265 1389.68 359.548C1429.12 361.117 1473.61 360.184 1514.06 361.075C1520.68 361.075 1527.12 361.372 1533.19 361.584C1599.68 364.086 1648.28 365.358 1713.54 373.882C1764.43 380.582 1803.36 398.434 1847.04 413.488C1864 419.425 1880.45 424.344 1896.53 429.009C1981.34 453.519 2008.1 462.934 2063.99 458.396C2107.46 454.961 2161.53 443.724 2234.63 417.22C2293.54 396.017 2367.83 362.432 2459.6 319.009" stroke="var(--stroke-0, #00D4AA)" stroke-opacity="0.5" stroke-miterlimit="10"/>
<path id="Vector_9" d="M44.1628 207.566C116.772 236.17 184.311 276.26 244.195 326.302C249.877 331.136 255.687 335.801 261.412 340.508C361.704 423.454 367.429 466.283 445.372 517.679C489.729 546.897 522.34 569.711 573.822 582.093C607.622 589.911 642.475 592.145 676.997 588.709C705.325 586.122 727.885 577.047 749.555 567.082C776.313 554.784 798.322 540.366 823.13 524.676C876.987 490.751 925.712 470.354 960.188 436.091C999.245 419.425 1035.76 387.621 1080.24 394.957C1103.4 398.773 1126.46 392.921 1149.03 383.847C1227.22 399.113 1274.59 389.487 1383.15 397.544C1422.76 400.47 1467.97 399.791 1508.08 400.427C1514.82 400.427 1521.27 400.427 1527.38 400.809C1594.89 402.717 1642.09 401.53 1708.45 408.23C1760.66 413.446 1799.08 431.214 1843.18 445.801C1860.14 451.484 1876.77 456.106 1893.18 460.431C1977.99 482.694 2005.81 489.861 2061.49 483.203C2105 477.987 2158.73 465.096 2232.05 438.296C2291.04 416.838 2365.97 383.847 2459.69 343.264" stroke="var(--stroke-0, #00D4AA)" stroke-opacity="0.5" stroke-miterlimit="10"/>
<path id="Vector_10" d="M41.7037 223.341C113.571 250.735 180.73 289.164 240.76 337.243C246.443 341.865 252.253 346.106 258.02 350.728C359.796 430.196 366.454 469.846 443.252 519.842C488.542 549.314 519.796 572.722 572.083 585.401C606.097 593.254 641.186 595.361 675.895 591.635C704.604 588.794 726.783 578.913 748.368 568.524C774.618 555.802 796.372 540.706 821.689 524.719C877.157 489.861 928.426 471.881 961.631 439.61C1002.04 424.768 1040.85 395 1082.87 406.576C1105.86 412.895 1129.05 409.121 1150.72 401.615C1228.96 426.125 1269.46 423.793 1376.58 435.539C1416.36 439.78 1461.9 439.441 1502.1 439.78H1521.48C1590.1 441.052 1635.98 437.533 1703.37 442.324C1756.8 446.098 1794.75 463.824 1839.32 477.903C1856.28 483.331 1873.03 487.614 1889.83 491.6C1974.64 511.7 2003.48 516.662 2058.94 507.799C2102.45 500.802 2155.84 486.257 2229.42 459.202C2288.45 437.533 2364.4 405.092 2459.73 367.309" stroke="var(--stroke-0, #00D4AA)" stroke-opacity="0.5" stroke-miterlimit="10"/>
<path id="Vector_11" d="M39.2434 239.074C110.283 265.303 176.993 302.024 237.155 348.014C242.88 352.255 248.69 356.495 254.457 360.736C357.336 436.684 365.435 473.153 441.046 521.877C487.27 551.561 517.378 575.606 570.302 588.539C604.505 596.493 639.825 598.487 674.707 594.434C703.84 591.338 725.595 580.906 747.053 569.838C772.793 556.438 794.336 540.96 820.162 524.719C877.283 489.013 931.055 473.365 962.733 443.13C1004.55 430.069 1043.31 425.404 1085.16 418.153C1109.16 422.733 1131.3 425.235 1152.25 419.34C1230.49 453.265 1264.03 458.099 1369.79 473.408C1409.74 479.217 1455.88 479.514 1495.91 479.048C1502.78 479.048 1509.35 479.048 1515.42 479.048C1585.13 478.157 1629.49 473.747 1698.06 476.715C1752.77 479.048 1790.21 496.689 1835.29 510.301C1852.25 515.432 1869.22 519.46 1886.18 523.022C1970.99 540.96 2000.68 543.632 2056.06 532.564C2099.61 523.828 2152.62 507.629 2226.54 480.277C2285.61 458.439 2362.24 426.507 2459.47 391.522" stroke="var(--stroke-0, #00D4AA)" stroke-opacity="0.5" stroke-miterlimit="10"/>
<path id="Vector_12" d="M36.8269 254.847C107.166 279.898 173.544 314.915 233.933 358.826C239.615 363.067 245.467 367.01 251.235 370.997C355.47 443.383 364.757 476.714 439.011 523.954C486.168 553.977 514.707 578.573 568.648 591.803C603.146 599.851 638.799 601.703 673.944 597.273C703.629 593.923 725.044 582.855 746.035 571.236C771.479 557.285 792.683 541.298 818.932 524.59C877.623 488.036 933.982 474.721 964.218 446.521C1007.39 435.284 1046.74 433.799 1087.83 429.559C1112.13 436.344 1133.93 441.178 1154.11 436.853C1232.35 479.894 1258.99 492.277 1363.35 511.147C1403.47 518.399 1450.16 518.908 1490.06 518.187C1497.01 518.187 1503.59 518.187 1509.69 518.187C1580.43 516.618 1623.43 509.706 1693.1 510.935C1748.99 511.826 1786.02 529.424 1831.56 542.528C1848.52 547.447 1865.49 551.009 1883.08 554.444C1967.9 570.303 1998.77 570.643 2053.77 557.37C2097.32 546.853 2149.99 529.043 2224.16 501.394C2283.28 479.386 2360.92 447.963 2459.77 415.819" stroke="var(--stroke-0, #00D4AA)" stroke-opacity="0.5" stroke-miterlimit="10"/>
<path id="Vector_13" d="M34.3665 270.582C103.95 294.515 169.937 327.844 230.497 369.641C236.222 373.882 242.074 377.359 247.842 381.133C353.477 449.915 363.951 480.108 436.89 526.033C484.979 556.269 512.162 581.458 566.952 594.985C601.576 603.084 637.383 604.822 672.629 600.116C702.314 596.469 723.856 584.765 744.72 572.553C769.486 558.05 790.519 541.554 817.405 524.804C877.75 487.359 936.61 476.419 965.447 450.212C1010.02 440.756 1049.79 442.197 1090.25 441.434C1114.8 450.382 1136.3 457.591 1155.68 454.834C1233.97 507.163 1253.64 526.924 1356.65 549.357C1396.93 558.092 1444.18 558.177 1483.87 557.838C1490.91 557.838 1497.52 557.838 1503.63 557.838C1575.47 555.59 1617.07 548.127 1687.84 545.71C1744.92 543.759 1781.52 562.672 1827.53 575.394C1844.66 580.013 1862.03 583.693 1879.56 586.419C1964.38 600.243 1996.27 598.208 2051.06 582.73C2094.65 570.432 2146.94 551.01 2221.36 523.065C2280.73 500.887 2359.01 469.931 2459.64 440.628" stroke="var(--stroke-0, #00D4AA)" stroke-opacity="0.5" stroke-miterlimit="10"/>
<path id="Vector_14" d="M31.9069 277.239C100.744 300.153 166.337 331.851 227.062 371.549C232.787 375.366 238.682 378.843 244.491 382.363C351.483 447.54 363.23 474.595 434.77 519.163C483.792 549.695 509.618 575.478 565.213 589.26C600.046 597.439 636.098 599.064 671.526 594.052C701.805 590.108 722.881 577.81 743.617 565.004C767.747 549.653 788.441 532.691 815.963 515.729C877.919 477.563 939.367 468.785 966.761 444.657C1012.69 436.981 1052.93 441.476 1092.75 443.936C1117.56 455.088 1138.72 464.63 1157.34 463.485C1235.66 525.058 1248.43 552.537 1349.99 577.98C1390.49 588.2 1438.28 588.412 1477.89 587.776L1497.73 587.394C1570.67 586.122 1610.83 572.976 1682.71 570.432C1741.11 568.312 1777.15 585.91 1823.63 597.996C1840.95 602.376 1858.51 605.76 1876.21 608.131C1960.82 619.919 1993.93 615.424 2048.47 597.784C2092.11 583.705 2144.05 562.672 2218.73 534.429C2278.1 512.082 2357.27 481.634 2459.69 455.173" stroke="var(--stroke-0, #00D4AA)" stroke-opacity="0.5" stroke-miterlimit="10"/>
<path id="Vector_15" d="M29.3629 279.91C97.4287 301.659 162.614 331.561 223.5 368.962C229.268 372.609 235.162 375.832 240.972 379.097C349.533 440.755 362.297 464.841 432.65 507.925C482.647 538.67 507.074 565.088 563.517 579.167C598.574 587.359 634.871 588.798 670.466 583.408C701.084 579.167 721.906 566.445 742.346 552.875C766.051 537.312 786.618 519.757 814.437 502.497C878.047 463.357 941.996 457.038 967.991 434.945C1015.32 429.051 1057.51 429.984 1095.21 442.324C1122.22 451.187 1141.14 467.767 1158.82 467.767C1237.15 538.585 1242.96 573.781 1343.16 602.66C1383.79 614.449 1432.22 614.745 1471.61 613.855C1478.82 613.855 1485.52 613.516 1491.59 613.346C1565.63 611.395 1604.35 595.832 1677.37 591.422C1736.95 587.818 1772.57 605.416 1819.52 616.866C1837 621.062 1854.73 624.15 1872.61 626.11C1957.17 635.948 1991.35 628.951 2045.67 609.148C2089.31 593.246 2140.92 570.601 2215.85 542.104C2275.22 519.587 2355.28 489.648 2459.48 465.774" stroke="var(--stroke-0, #00D4AA)" stroke-opacity="0.5" stroke-miterlimit="10"/>
<path id="Vector_16" d="M27.0306 282.497C94.3532 303.216 159.144 331.408 220.193 366.546C226.003 369.98 231.939 372.949 237.707 376.002C347.625 433.843 361.534 454.707 430.53 496.689C481.418 527.645 504.487 554.7 561.99 569.033C597.23 577.468 633.782 578.909 669.576 573.273C700.618 568.736 721.142 555.251 741.328 541.299C764.567 525.228 784.88 507.078 813.419 489.564C878.598 449.576 945.092 445.632 969.73 425.532C1018.37 421.291 1061.41 425.998 1098.05 441.01C1125.57 452.29 1143.94 470.694 1160.98 472.772C1239.31 552.876 1238.16 595.748 1337.06 627.892C1377.85 641.25 1426.75 641.589 1466.1 640.614L1486.2 639.935C1561.3 637.348 1598.62 619.326 1672.79 613.135C1733.64 608.004 1768.76 625.856 1816.21 636.67C1833.86 640.718 1851.77 643.552 1869.81 645.151C1954.28 653.081 1989.57 643.54 2043.68 621.573C2087.31 603.89 2138.54 579.634 2213.77 550.841C2293.4 519.159 2375.7 494.636 2459.69 477.564" stroke="var(--stroke-0, #00D4AA)" stroke-opacity="0.5" stroke-miterlimit="10"/>
<path id="Vector_17" d="M24.5709 283.345C91.1643 303.135 155.561 329.677 216.758 362.559C222.61 365.782 228.547 368.538 234.314 371.337C345.716 425.489 360.728 443.427 428.409 483.967C480.315 515.135 501.942 542.826 560.082 557.456C595.545 565.928 632.351 567.169 668.304 561.103C699.685 556.268 719.955 542.19 739.929 527.645C762.659 511.064 782.717 492.363 811.681 474.595C878.513 433.758 947.382 432.189 970.748 414.082C1020.79 411.792 1064.51 420.019 1100.26 437.617C1128.25 451.399 1146.1 471.923 1162.34 475.528C1240.71 564.877 1232.57 615.467 1330.1 650.875C1371.07 665.802 1420.56 666.142 1459.74 664.827C1467.08 664.573 1473.9 664.233 1479.97 663.979C1556.3 660.714 1592.05 640.317 1667.28 632.302C1729.32 625.687 1764.01 643.37 1811.93 653.844C1829.76 657.652 1847.84 660.146 1866.04 661.307C1950.47 667.371 1986.81 655.201 2040.71 631.114C2084.35 611.608 2135.23 585.783 2210.72 556.65C2291.05 524.797 2374.5 501.418 2459.69 486.893" stroke="var(--stroke-0, #00D4AA)" stroke-opacity="0.5" stroke-miterlimit="10"/>
<path id="Vector_18" d="M22.1113 280.928C87.988 299.771 151.994 324.626 213.323 355.181C219.175 358.192 225.154 360.736 230.922 363.323C343.85 413.658 360.135 428.415 426.289 467.853C479.17 499.233 499.398 527.602 558.386 542.444C594.044 551.015 631.087 552.141 667.201 545.752C698.964 540.579 718.98 525.949 738.699 510.81C760.962 493.847 780.766 474.468 810.239 456.446C878.683 414.761 950.181 415.482 972.062 399.452C1023.46 398.944 1067.77 410.902 1102.76 431.087C1131.09 447.456 1148.56 469.931 1164.04 475.104C1242.4 573.74 1227.22 632.005 1323.49 670.637C1364.54 687.175 1414.66 687.599 1453.72 685.988C1461.1 685.691 1467.97 685.309 1474.03 685.012C1551.34 681.111 1585.69 658.212 1662.02 648.416C1725.29 640.274 1759.55 658 1807.85 667.965C1825.88 671.548 1844.16 673.746 1862.52 674.538C1946.91 678.779 1984.27 663.937 2037.95 637.73C2081.59 616.527 2132.18 588.963 2207.92 559.576C2288.84 527.401 2373.32 505.035 2459.56 492.957" stroke="var(--stroke-0, #00D4AA)" stroke-opacity="0.5" stroke-miterlimit="10"/>
<path id="Vector_19" d="M19.6941 278.511C84.8491 296.484 148.452 319.67 209.888 347.845C215.782 350.643 221.762 352.891 227.529 355.266C342.027 401.912 358.99 413.573 424.169 451.739C477.983 483.288 496.854 512.336 556.647 527.475C592.515 536.17 629.817 537.167 666.098 530.401C698.243 524.846 718.004 509.75 737.511 493.975C759.308 476.376 778.815 456.573 808.797 438.296C878.895 395.89 952.979 398.774 973.377 384.78C1020.19 385.337 1065.89 399.111 1105.22 424.514C1133.84 443.512 1151.02 467.895 1165.69 474.68C1244.1 582.56 1221.84 648.543 1316.87 690.398C1358.01 708.59 1408.77 708.929 1447.65 707.148C1455.16 706.809 1462.03 706.385 1468.14 706.003C1546.46 701.339 1579.54 676.319 1656.97 664.53C1721.39 654.904 1755.31 672.63 1804.08 682.086C1821.04 685.352 1838.94 685.86 1859.21 687.726C1943.26 695.487 1981.98 672.672 2035.45 644.303C2079.09 621.149 2129.34 592.144 2205.33 562.46C2286.92 529.965 2372.49 508.571 2459.77 498.851" stroke="var(--stroke-0, #00D4AA)" stroke-opacity="0.5" stroke-miterlimit="10"/>
<path id="Vector_20" d="M17.235 276.094C81.6998 293.219 144.92 314.726 206.453 340.466C212.39 343.01 218.37 345.088 224.179 347.209C340.119 389.614 358.396 398.732 422.049 435.625C476.881 467.386 494.14 497.07 554.951 512.506C591.088 521.314 628.704 522.182 665.208 515.05C697.692 509.114 717.199 493.508 736.494 477.14C757.697 459.032 777.035 438.678 807.525 420.146C879.277 376.723 955.948 381.981 974.862 370.15C1022.93 372.671 1069.16 389.391 1107.72 418.196C1136.52 439.78 1153.48 466.114 1167.35 474.468C1245.8 591.593 1216.41 665.294 1310.21 710.414C1351.47 730.217 1402.83 730.514 1441.67 728.521C1449.22 728.139 1456.18 727.63 1462.24 727.249C1541.67 721.863 1573.3 694.257 1651.88 680.857C1717.57 669.704 1750.86 687.557 1800.31 696.42C1818.77 698.989 1837.36 700.574 1855.99 701.169C1940.16 706.639 1979.73 681.62 2033.03 651.13C2076.63 626.153 2126.58 595.579 2202.66 565.598C2284.85 532.852 2371.47 512.528 2459.65 505.297" stroke="var(--stroke-0, #00D4AA)" stroke-opacity="0.5" stroke-miterlimit="10"/>
<path id="Vector_21" d="M14.7747 273.676C78.5783 289.996 141.435 309.815 203.06 333.044C208.997 335.377 214.976 337.285 220.786 339.108C338.253 377.782 357.632 383.804 420.097 419.679C475.735 451.399 491.595 481.803 553.212 497.494C589.5 506.427 627.32 507.181 663.935 499.699C696.801 493.38 716.096 477.266 735.094 460.304C755.958 441.73 774.914 420.782 805.955 401.996C879.276 357.724 958.619 365.442 976.006 355.35C1025.46 359.737 1072.34 379.32 1110.22 411.41C1139.1 435.666 1155.89 463.866 1169 473.789C1247.45 600.2 1210.94 681.874 1303.6 729.962C1344.94 751.419 1396.89 751.673 1435.57 749.468C1443.2 749.044 1450.2 748.493 1456.26 748.027C1536.83 741.92 1566.98 711.939 1646.71 696.758C1713.63 684.036 1746.45 702.016 1796.28 710.328C1814.91 712.756 1833.68 714.045 1852.47 714.187C1936.77 717.367 1977.18 690.143 2030.28 657.49C2073.91 630.732 2123.57 598.546 2199.9 568.438C2282.76 535.4 2370.45 516.106 2459.52 511.318" stroke="var(--stroke-0, #00D4AA)" stroke-opacity="0.5" stroke-miterlimit="10"/>
<path id="Vector_22" d="M12.4 271.259C85.0425 289.706 150.222 308.492 199.668 325.708C205.689 327.829 211.669 329.44 217.436 331.136C336.472 365.739 356.912 368.962 417.85 403.226C474.632 435.285 489.263 466.368 551.558 482.355C588.045 491.397 626.112 492.021 662.875 484.178C696.122 477.436 715.205 460.898 733.949 443.299C754.304 424.217 773.005 402.717 804.556 383.677C879.531 338.557 961.461 348.607 977.363 340.72C1028.17 347.022 1075.62 369.433 1112.77 404.668C1141.69 431.595 1160.22 460.007 1170.74 473.195C1268.27 595.875 1205.47 698.412 1297.02 749.553C1338.41 772.707 1391.08 772.877 1429.59 770.46C1437.31 769.993 1444.3 769.357 1450.41 768.848C1531.96 762.021 1560.67 729.665 1641.58 712.745C1709.73 698.455 1742.08 716.519 1792.42 724.237C1811.18 727.02 1830.16 728.028 1849.12 727.248C1933.46 724.364 1974.81 698.667 2027.73 663.936C2071.33 635.312 2120.6 601.557 2197.36 571.025C2280.92 537.712 2369.72 519.436 2459.64 517.043" stroke="var(--stroke-0, #00D4AA)" stroke-opacity="0.5" stroke-miterlimit="10"/>
<path id="Vector_23" d="M9.89784 268.842C83.3461 286.737 148.101 303.7 196.19 318.33C202.254 320.195 208.234 321.595 214.001 323.079C334.69 353.611 356.106 354.078 415.687 387.239C473.487 419.467 486.676 451.314 549.777 467.555C586.492 476.716 624.834 477.21 661.773 468.997C695.359 461.788 714.187 444.826 732.677 426.591C752.608 407 770.843 384.949 803.072 365.654C879.658 319.644 963.92 332.069 978.678 326.175C1036.94 334.656 1082.74 365.018 1115.23 398.264C1144.11 427.948 1162.38 458.608 1172.35 472.898C1266.7 608.045 1199.91 715.247 1290.32 769.484C1331.76 794.291 1385.15 794.376 1423.48 791.747C1431.28 791.196 1438.37 790.56 1444.43 790.008C1527.08 782.418 1554.39 747.603 1636.4 728.986C1705.74 713.169 1737.63 731.361 1788.43 738.485C1807.39 741.054 1826.55 741.75 1845.64 740.563C1930.03 736.026 1972.35 707.529 2025.1 670.636C2068.66 640.189 2117.64 604.865 2194.73 574.036C2254.48 550.162 2341.33 524.252 2459.69 523.149" stroke="var(--stroke-0, #00D4AA)" stroke-opacity="0.5" stroke-miterlimit="10"/>
<path id="Vector_24" d="M7.43815 266.425C81.6498 283.896 145.981 298.823 192.755 310.994C198.862 312.563 204.841 313.75 210.608 315.234C332.697 341.399 355.342 339.151 413.567 371.125C471.791 403.099 484.131 436.048 548.08 452.544C584.988 461.861 623.587 462.239 660.67 453.647C694.595 445.929 713.254 428.627 731.489 409.799C750.954 389.741 769.061 367.096 801.63 347.547C879.87 300.901 966.676 315.446 979.992 311.587C1039.66 321.85 1085.5 355.774 1117.73 391.734C1146.52 423.878 1164.38 456.997 1174 472.305C1264.71 619.665 1194.32 731.828 1283.71 789.076C1325.14 815.622 1379.21 815.579 1417.46 812.738C1425.3 812.144 1432.43 811.424 1438.66 810.83C1522.37 802.349 1548.28 765.371 1631.4 744.931C1701.97 727.587 1733.43 745.907 1784.7 752.437C1803.85 754.805 1823.19 755.203 1842.42 753.625C1926.85 747.391 1970.06 716.095 2022.69 677.082C2066.2 644.811 2114.88 607.918 2192.31 576.793C2252.15 552.749 2339.8 527.305 2459.94 529.129" stroke="var(--stroke-0, #00D4AA)" stroke-opacity="0.5" stroke-miterlimit="10"/>
<path id="Vector_25" d="M5.02094 264.007C79.9535 280.97 143.86 293.946 189.32 303.699C195.469 305.014 201.448 306.031 207.216 307.049C330.789 329.143 354.579 324.223 411.446 355.052C471.282 387.45 481.544 420.781 546.342 437.574C583.459 447.053 622.333 447.301 659.567 438.295C693.832 430.026 712.321 412.385 730.302 393.005C749.3 372.396 767.111 349.243 800.23 329.397C880.039 281.69 970.069 292.589 981.307 296.957C1039.32 319.389 1088.21 346.444 1120.23 385.203C1148.9 419.933 1166.58 455.342 1175.7 472.092C1262.42 631.326 1188.67 748.832 1277.09 809.09C1318.52 837.332 1373.31 837.121 1411.39 834.11C1419.37 833.474 1426.49 832.71 1432.6 832.074C1517.41 822.999 1541.84 783.477 1626.1 761.257C1697.85 742.344 1728.85 760.833 1780.63 766.769C1799.97 768.93 1819.49 769.03 1838.85 767.066C1923.33 759.179 1967.47 725.042 2019.89 683.909C2063.4 649.984 2111.78 611.31 2189.51 579.887C2249.39 555.674 2337.94 530.782 2459.81 535.404" stroke="var(--stroke-0, #00D4AA)" stroke-opacity="0.5" stroke-miterlimit="10"/>
<path id="Vector_26" d="M2.56191 261.59C78.2578 278.256 141.698 288.942 185.886 296.236C192.077 297.254 198.057 298.102 203.866 298.907C328.881 316.803 353.859 309.297 409.326 338.896C470.392 371.548 478.873 405.473 544.646 422.435C581.978 432.037 621.119 432.153 658.508 422.775C693.027 413.912 711.389 396.017 729.072 376.128C747.647 354.925 765.161 331.305 798.789 311.247C880.252 262.693 972.19 281.055 982.622 282.284C1046.23 289.875 1090.89 337.073 1122.56 378.63C1143.99 407.622 1162.3 438.793 1177.18 471.626C1259.88 642.436 1182.87 765.582 1270.48 828.852C1311.87 858.79 1367.42 858.536 1405.37 855.27C1413.39 854.592 1420.6 853.744 1426.58 853.065C1512.41 843.1 1535.43 801.245 1620.88 777.371C1693.78 756.847 1724.4 775.632 1776.64 780.891C1796.19 782.843 1815.88 782.63 1835.38 780.255C1919.94 770.713 1964.89 733.608 2017.22 690.482C2060.64 654.479 2108.73 614.491 2186.84 582.814C2246.81 558.43 2336.11 534.005 2459.81 541.468" stroke="var(--stroke-0, #00D4AA)" stroke-opacity="0.5" stroke-miterlimit="10"/>
<path id="Vector_27" d="M0.102236 259.173C76.4342 275.118 139.493 283.853 182.451 288.857C324.598 305.395 350.635 293.098 407.206 322.782C469.12 355.307 476.456 390.249 542.907 407.593C580.449 417.356 619.863 417.356 657.405 407.593C728.563 388.087 730.514 332.874 797.347 293.098C880.422 243.653 974.861 265.407 983.936 267.654C1104.88 297.338 1161.28 430.111 1179.01 471.202C1257.59 653.207 1177.31 782.332 1263.82 848.613C1314.03 887.075 1386.29 878.297 1420.72 874.056C1507.62 863.455 1529.24 819.183 1615.8 793.485C1713.33 764.48 1734.83 806.207 1832.07 793.485C1987.19 773.003 2012.09 656.091 2184.04 585.697C2244.05 561.144 2334.21 537.227 2459.69 547.532" stroke="var(--stroke-0, #00D4AA)" stroke-opacity="0.5" stroke-miterlimit="10"/>
<path id="Vector_28" d="M2.39268 264.475C77.3676 280.42 139.366 289.919 182.324 295.177C320.697 312.648 347.71 301.114 403.941 330.84C464.71 363.068 472.809 396.993 537.607 414.464C574.364 424.175 612.948 424.67 649.942 415.906C720.167 399.325 722.881 345.47 788.697 307.22C869.99 259.641 961.588 279.444 972.19 281.183C1071.38 297.255 1126.08 395 1153.01 447.159C1158.52 457.803 1162.51 466.962 1165.73 473.578C1246.31 645.872 1170.23 769.951 1255.47 832.542C1306.35 869.817 1379.21 860.445 1415.08 856.416C1447.96 852.807 1479.83 842.871 1508.93 827.156C1538.62 812.272 1566.39 795.479 1612.06 784.327C1626.06 780.934 1638.53 779.068 1649.72 777.457C1717.57 767.661 1743.74 791.79 1825.5 777.245C1857.13 771.692 1887.58 760.809 1915.57 745.059C1991.52 702.653 2039.01 626.323 2156.61 570.602C2163.51 567.323 2170.71 564.128 2178.23 561.018C2238.79 535.829 2330.3 510.767 2457.69 520.394" stroke="var(--stroke-0, #00D4AA)" stroke-opacity="0.5" stroke-miterlimit="10"/>
<path id="Vector_29" d="M4.68188 269.775C78.1302 285.72 139.238 295.6 182.238 301.452C316.752 319.814 344.613 309.127 400.675 338.939C460.341 370.489 469.162 404.116 532.136 421.291C568.138 430.975 605.922 431.992 642.393 424.259C711.558 410.392 715.248 358.276 780.002 321.298C859.557 275.881 948.739 290.511 960.358 294.71C1052.13 327.574 1111.66 401.784 1139.4 450.932C1145.04 460.94 1148.94 469.718 1152.12 475.909C1234.56 638.705 1162.98 757.441 1246.86 816.469C1298.17 852.514 1371.83 842.591 1409.15 838.732C1442.28 835.331 1474.58 826.221 1504.6 811.805C1534.76 798.362 1562.96 783.817 1608.08 775.209C1622.11 772.495 1634.67 771.477 1645.86 769.866C1713.5 760.07 1738.52 779.11 1818.63 760.96C1849.89 753.755 1879.83 741.678 1907.34 725.17C1980.45 682.764 2030.32 603.762 2150.29 546.175C2157.29 542.868 2164.58 539.56 2172.17 536.337C2233.24 510.512 2326.11 484.305 2455.45 493.211" stroke="var(--stroke-0, #00D4AA)" stroke-opacity="0.5" stroke-miterlimit="10"/>
<path id="Vector_30" d="M6.97234 275.076C78.894 290.979 139.069 301.453 182.027 307.941C312.724 327.066 341.518 317.355 397.325 347.166C455.847 378.207 465.431 411.199 526.878 428.288C562.106 437.889 599.058 439.339 634.93 432.529C702.78 421.291 707.657 370.913 771.352 335.377C849.168 291.954 935.508 303.064 948.612 308.153C1021.48 337.358 1083.43 388.557 1125.83 454.622C1131.6 463.994 1135.46 472.39 1138.55 478.2C1222.77 631.157 1155.77 745.017 1238.16 800.483C1290.07 835.341 1364.41 824.782 1403.17 821.177C1436.57 817.918 1469.28 809.611 1500.19 796.54C1530.9 784.539 1559.56 772.283 1604.01 766.135C1618.17 764.184 1630.76 763.972 1641.96 762.361C1709.51 752.522 1733.18 766.601 1811.59 744.762C1842.43 735.866 1871.85 722.615 1898.94 705.41C1969.21 662.707 2021.67 581.458 2143.76 521.835C2150.8 518.443 2158.18 515.065 2165.89 511.7C2227.47 485.282 2321.74 457.93 2452.99 466.157" stroke="var(--stroke-0, #00D4AA)" stroke-opacity="0.5" stroke-miterlimit="10"/>
<path id="Vector_31" d="M9.26151 280.333C79.6565 296.277 138.941 307.303 181.984 314.257C308.864 334.145 338.634 325.41 394.017 355.263C451.351 385.838 461.868 418.109 521.449 435.156C555.938 444.806 592.115 446.832 627.465 441.093C694.341 432.611 700.066 383.845 762.743 349.708C838.82 307.939 921.301 324.562 936.864 321.721C1026.55 339.828 1082.96 415.013 1112.3 458.437C1118.19 467.13 1121.97 475.102 1125.28 480.572C1211.36 623.819 1148.94 732.505 1229.81 784.324C1282.39 817.995 1357.28 806.842 1397.53 803.407C1431.23 800.306 1464.37 792.807 1496.12 781.102C1527.42 770.543 1556.43 760.62 1600.32 756.888C1614.56 755.658 1627.2 756.294 1638.48 754.683C1705.95 744.845 1728.26 753.792 1805.22 728.434C1837.84 717.663 1864.59 702.227 1891.23 685.434C1958.74 642.647 2013.53 558.684 2137.95 497.323C2145.02 493.845 2152.48 490.382 2160.34 486.933C2222.46 459.836 2318.09 431.339 2451.25 438.887" stroke="var(--stroke-0, #00D4AA)" stroke-opacity="0.5" stroke-miterlimit="10"/>
<path id="Vector_32" d="M11.5101 285.635C80.2513 301.538 138.772 313.114 182.027 320.323C305.006 340.932 335.539 333.384 390.922 363.068C447.069 393.261 458.222 424.769 516.319 441.731C550.005 451.376 585.333 453.889 620.045 449.109C685.648 442.833 692.518 396.23 754.135 363.535C828.432 324.14 907.902 339.279 925.203 335.165C1012.22 351.619 1068.58 421.588 1098.82 462.128C1104.84 470.185 1108.57 477.776 1111.96 482.864C1199.87 616.315 1142.16 719.87 1221.41 768.17C1274.68 800.653 1350.16 788.864 1391.8 785.684C1434.21 782.461 1464.11 773.683 1492.01 765.71C1523.9 756.593 1553.58 743.363 1596.54 747.646C1609.24 749.014 1622.06 748.801 1634.71 747.01C1702.14 737.171 1723 741.2 1798.48 712.067C1830.08 699.897 1856.37 683.147 1883.3 665.421C1948.05 622.676 2005.17 536.126 2131.88 472.772C2139.04 469.21 2146.59 465.648 2154.53 462.086C2217.16 434.395 2314.15 404.753 2449.26 411.58" stroke="var(--stroke-0, #00D4AA)" stroke-opacity="0.5" stroke-miterlimit="10"/>
<path id="Vector_33" d="M13.7993 290.979C81.1835 306.881 138.644 319.009 181.73 326.685C301.019 347.887 332.528 341.442 387.656 371.211C442.785 400.979 454.616 431.681 510.975 448.686C560.082 463.485 601.004 460.305 612.751 457.549C675.385 442.707 685.054 408.994 745.653 377.741C818.168 340.339 894.712 354.121 913.626 348.778C997.93 363.62 1054.2 428.204 1085.46 465.945C1091.56 473.366 1095.25 480.575 1098.69 485.324C1188.42 608.979 1135.54 707.276 1213.19 752.226C1267.21 783.521 1343.16 771.096 1386.29 768.128C1429.42 765.16 1459.65 757.187 1488.07 750.445C1520.51 742.769 1551.21 731.277 1592.94 738.614C1605.53 740.943 1618.42 741.243 1631.1 739.504C1698.45 729.666 1717.91 728.776 1791.87 695.911C1822.48 682.341 1848.18 664.234 1875.15 645.745C1937.19 603.339 1996.69 513.863 2125.65 448.516C2132.86 444.869 2140.49 441.222 2148.55 437.576C2211.74 409.249 2310.08 378.462 2447.09 384.568" stroke="var(--stroke-0, #00D4AA)" stroke-opacity="0.5" stroke-miterlimit="10"/>
<path id="Vector_34" d="M16.0898 296.153C81.9473 312.182 138.475 324.904 181.603 332.876C297.076 354.588 329.517 349.372 384.391 379.141C438.248 408.401 450.97 438.509 505.674 455.471C553.424 470.271 593.202 468.447 605.118 465.818C666.523 452.163 677.209 421.631 736.833 391.82C807.567 356.369 881.016 368.878 901.71 362.136C983.343 375.324 1039.4 434.226 1071.72 469.55C1076.49 475.296 1080.96 481.283 1085.12 487.487C1176.59 601.347 1128.67 694.342 1204.45 735.985C1259.28 766.05 1335.7 752.947 1380.27 750.275C1423.14 747.646 1454.65 740.395 1483.61 734.925C1516.65 728.691 1548.37 719.234 1588.82 729.285C1601.35 732.601 1614.4 733.437 1627.25 731.744C1694.54 721.864 1712.57 716.139 1785.04 679.458C1814.73 664.489 1839.74 645.109 1866.93 625.687C1926.3 583.282 1988.13 491.261 2119.33 423.921C2126.6 420.189 2134.32 416.458 2142.49 412.726C2206.1 383.763 2305.88 351.831 2444.85 357.259" stroke="var(--stroke-0, #00D4AA)" stroke-opacity="0.5" stroke-miterlimit="10"/>
<path id="Vector_35" d="M18.379 301.368C82.7098 317.312 138.305 330.458 181.517 339.109C293.132 361.414 326.506 357.386 381.337 387.154C434.049 415.948 447.534 445.293 500.542 462.17C547.19 476.97 585.61 476.503 597.866 474.001C658.083 461.661 669.957 434.182 728.393 405.771C797.346 372.312 867.954 383.508 890.175 375.62C969.093 387.154 1024.86 440.798 1058.4 473.153C1063.21 478.425 1067.73 483.96 1071.93 489.734C1165.22 593.755 1122.27 681.365 1196.18 719.785C1251.82 748.663 1328.66 734.966 1374.67 732.507C1417.93 730.132 1450.15 723.644 1479.63 719.446C1514.66 714.628 1550.2 714.813 1585.18 719.997C1600.1 721.905 1612.66 725.637 1623.72 724.237C1690.94 714.314 1707.52 703.84 1778.51 663.3C1807.09 646.974 1831.64 626.195 1859.08 605.926C1915.86 563.859 1979.9 468.913 2113.52 399.579C2120.82 395.805 2128.66 391.946 2136.97 388.087C2201.18 358.403 2302.36 325.412 2443.11 330.161" stroke="var(--stroke-0, #00D4AA)" stroke-opacity="0.5" stroke-miterlimit="10"/>
<path id="Vector_36" d="M20.8818 308.661C83.686 324.563 138.391 338.345 181.603 347.377C289.231 370.149 323.538 367.308 377.861 397.204C429.47 425.531 443.676 454.155 495.03 470.99C540.151 485.79 577.554 486.638 590.149 484.305C649.263 473.407 662.028 448.812 719.574 421.842C786.703 390.377 854.384 400.257 878.217 391.14C954.549 401.021 1009.68 449.066 1044.62 479.005C1049.48 483.794 1054.05 488.863 1058.32 494.186C1153.1 588.369 1115.52 670.551 1187.49 705.79C1244.02 733.481 1321.2 719.191 1368.69 716.943C1412.24 714.865 1445.24 709.14 1475.22 706.214C1509.4 702.864 1541.24 705.706 1581.23 712.957C1596.37 715.713 1608.88 720.166 1619.91 718.554C1687.04 708.632 1702.22 693.408 1771.72 648.924C1799.29 631.241 1823.25 609.148 1850.9 587.945C1905.14 546.302 1971.38 448.43 2107.08 377.061C2114.46 373.16 2122.34 369.259 2130.78 365.272C2195.49 335.08 2297.91 300.858 2440.73 304.887" stroke="var(--stroke-0, #00D4AA)" stroke-opacity="0.5" stroke-miterlimit="10"/>
<path id="Vector_37" d="M22.9599 327.023C84.2375 342.925 138.009 357.131 181.264 366.757C285.287 389.953 320.527 388.511 374.596 418.195C425.06 446.056 440.029 474.001 489.73 490.751C533.493 505.551 569.709 507.714 582.685 505.551C640.697 496.179 654.395 474.383 710.923 448.854C776.229 419.17 840.984 427.991 866.47 417.559C940.003 426.04 990.51 475.061 1031.09 495.713C1036.48 501.48 1041.14 506.145 1044.87 509.452C1141.27 593.755 1109.08 670.594 1179.01 702.653C1236.47 729.071 1313.99 714.187 1362.92 712.194C1406.77 710.413 1440.53 705.451 1471.02 703.713C1505.79 701.805 1538.23 707.444 1577.25 716.647C1592.6 720.251 1605.07 725.424 1616.05 723.771C1683.14 713.848 1696.88 694.087 1764.85 645.49C1791.44 626.534 1814.81 603.084 1842.67 580.906C1894.41 539.73 1962.81 438.847 2100.76 365.485C2108.19 361.555 2116.18 357.541 2124.72 353.442C2189.98 322.825 2293.88 287.458 2438.48 290.978" stroke="var(--stroke-0, #00D4AA)" stroke-opacity="0.5" stroke-miterlimit="10"/>
<path id="Vector_38" d="M25.1223 343.562C85.0005 359.464 137.839 374.136 181.136 384.271C281.386 407.849 317.728 407.849 371.33 437.703C420.649 465.054 436.382 492.321 484.386 509.029C526.793 523.786 561.821 527.094 575.221 525.27C632.173 517.51 646.761 498.47 702.441 474.384C766.051 446.82 827.753 454.156 854.893 442.494C925.712 449.11 975.709 493.678 1017.69 510.852C1022.09 515.241 1026.75 519.362 1031.64 523.193C1129.52 597.699 1102.84 668.771 1170.7 697.989C1229.13 723.135 1306.91 707.657 1357.28 705.961C1401.47 704.435 1435.99 700.236 1466.95 699.855C1502.32 699.388 1535.39 707.912 1573.56 718.98C1589.08 723.475 1601.55 729.327 1612.53 727.461C1679.49 717.495 1691.87 693.027 1758.32 640.487C1783.77 620.259 1806.71 595.494 1834.66 572.341C1883.89 531.716 1954.41 427.737 2094.61 352.34C2102.07 348.099 2110.17 344.198 2118.82 340.042C2184.6 308.535 2289.72 272.193 2436.41 274.695" stroke="var(--stroke-0, #00D4AA)" stroke-opacity="0.5" stroke-miterlimit="10"/>
<path id="Vector_39" d="M27.4964 360.099C85.8056 376.001 137.754 391.14 181.008 401.869C277.484 425.701 314.505 427.1 368.064 456.996C416.238 483.881 432.734 510.47 479.085 527.093C520.219 541.85 553.975 543.08 567.757 544.818C623.522 551.943 639.127 522.343 693.62 499.741C755.322 474.298 814.182 480.192 842.976 467.258C911.124 472.22 960.527 512.166 1004.12 525.863C1008.56 529.821 1013.27 533.476 1018.2 536.804C1117.52 601.472 1096.44 666.82 1162.38 693.154C1221.75 716.986 1299.82 700.999 1351.69 699.514C1396.21 698.285 1431.45 694.892 1462.92 695.74C1498.88 696.716 1532.51 708.208 1569.87 721.184C1585.6 726.569 1597.98 733.057 1608.97 731.446C1675.88 721.438 1686.91 692.39 1751.75 635.779C1776.39 614.279 1798.61 588.157 1826.85 564.028C1873.5 523.997 1946.27 416.88 2088.71 339.278C2096.26 335.207 2104.42 330.966 2113.18 326.556C2179.46 294.413 2285.99 256.756 2434.58 258.707" stroke="var(--stroke-0, #00D4AA)" stroke-opacity="0.5" stroke-miterlimit="10"/>
<path id="Vector_40" d="M29.7869 376.679C86.5694 392.751 137.542 408.145 180.882 419.424C273.583 443.511 311.494 446.394 364.799 476.333C411.828 502.709 429.088 528.45 473.742 545.412C513.562 560.169 546.173 562.374 560.252 564.622C614.617 573.103 631.452 546.472 684.969 525.312C744.848 501.607 800.824 506.441 831.23 492.235C896.663 495.585 945.728 530.824 990.425 541.086C994.91 544.624 999.659 547.813 1004.63 550.628C1105.3 605.501 1090.08 665.123 1153.56 688.573C1214.08 711.006 1292.27 694.51 1345.54 693.323C1390.4 692.348 1426.41 689.761 1458.38 691.881C1494.94 694.298 1529.12 708.843 1565.67 723.389C1581.57 729.749 1593.96 736.874 1604.9 735.22C1671.73 725.212 1681.48 691.627 1744.84 630.902C1768.5 608.13 1790.13 580.693 1818.54 555.547C1862.98 516.152 1937.62 405.855 2082.31 326.556C2089.92 322.344 2098.16 318.103 2107.03 313.834C2173.87 281.097 2281.71 242.296 2432.25 243.568" stroke="var(--stroke-0, #00D4AA)" stroke-opacity="0.5" stroke-miterlimit="10"/>
<path id="Vector_41" d="M32.0774 393.217C87.206 409.077 137.373 425.107 180.755 436.98C269.809 461.236 308.484 465.731 361.535 495.627C407.461 521.537 425.441 546.811 468.442 563.476C506.904 578.234 538.37 581.414 552.788 584.17C605.712 594.22 623.82 570.304 676.319 550.627C734.374 528.873 787.424 532.435 819.484 516.957C882.246 518.654 930.589 549.27 976.897 556.055C981.437 559.156 986.232 561.866 991.231 564.155C1093.01 609.402 1083.85 662.833 1145.08 683.697C1206.32 704.56 1285.02 687.937 1339.77 686.877C1384.93 686.156 1421.7 684.333 1454.27 687.725C1491.37 691.584 1526.11 708.928 1561.9 725.466C1577.97 732.802 1590.35 740.478 1601.25 738.866C1668 728.816 1676.52 690.778 1738.05 625.855C1760.83 601.854 1781.86 573.102 1810.44 546.896C1852.51 508.264 1929.18 394.702 2076.08 313.198C2083.71 308.957 2092.06 304.717 2101.05 300.094C2168.31 266.552 2277.55 226.605 2430 227.369" stroke="var(--stroke-0, #00D4AA)" stroke-opacity="0.5" stroke-miterlimit="10"/>
<path id="Vector_42" d="M34.3665 409.715C88.0958 425.574 137.245 442.028 180.669 454.453C265.822 478.878 305.472 484.942 358.268 514.881C403.05 540.324 421.878 564.877 463.098 581.331C500.288 596.088 530.609 600.244 545.324 603.509C596.848 614.916 616.143 593.967 667.71 575.733C723.899 555.887 774.023 558.262 807.652 541.512C867.699 541.512 915.492 567.506 963.242 570.814C967.871 573.478 972.724 575.734 977.745 577.556C1081.05 613.262 1077.65 660.417 1136.6 678.736C1199.32 698.201 1277.77 680.942 1334 680.348C1379.46 679.839 1416.99 678.821 1449.99 683.486C1487.68 688.787 1522.88 709.396 1557.95 727.418C1574.19 735.899 1586.53 743.999 1597.43 742.345C1664.14 732.337 1671.43 689.804 1731.27 620.683C1753.11 595.452 1773.67 565.556 1802.26 538.119C1842.03 500.251 1920.66 383.423 2069.8 299.884C2077.52 295.558 2085.93 291.092 2095.03 286.484C2162.88 252.559 2273.48 211.426 2427.88 211.298" stroke="var(--stroke-0, #00D4AA)" stroke-opacity="0.5" stroke-miterlimit="10"/>
<path id="Vector_43" d="M36.657 426.337C88.8596 442.196 137.076 459.031 180.543 472.092C261.963 496.603 302.504 504.321 355.004 534.344C398.64 559.236 418.147 583.153 457.797 599.521C483.754 609.7 510.542 617.617 537.861 623.184C587.986 635.906 608.468 617.925 659.059 601.175C713.382 583.238 760.835 584.213 795.99 566.36C853.324 564.791 900.607 586.079 949.799 585.952C954.502 588.166 959.4 589.94 964.429 591.252C1068.66 617.374 1071.55 658.126 1128.12 673.943C1192.03 691.796 1270.56 675.3 1328.19 673.943C1373.99 672.883 1412.24 673.519 1445.79 679.414C1483.95 686.156 1519.74 709.903 1554.09 729.537C1570.46 738.867 1582.85 747.687 1593.7 746.033C1660.32 735.983 1666.47 689.04 1724.57 615.678C1745.47 589.259 1765.41 557.964 1794.2 529.51C1831.65 492.447 1912.22 372.312 2063.61 286.737C2071.37 282.496 2079.85 277.789 2089.05 273.082C2157.46 238.437 2269.41 196.201 2425.72 195.395" stroke="var(--stroke-0, #00D4AA)" stroke-opacity="0.5" stroke-miterlimit="10"/>
<path id="Vector_44" d="M38.9462 442.918C89.8341 458.778 136.948 475.952 180.415 489.564C258.104 514.075 299.493 523.489 351.78 553.555C394.187 577.938 414.499 601.219 452.453 617.502C477.749 627.954 503.806 636.46 530.397 642.946C579.207 656.897 600.792 641.928 650.407 626.747C702.864 610.633 747.264 610.59 784.243 591.338C838.905 588.073 885.637 604.738 936.228 601.134C941.018 602.882 945.958 604.188 950.986 605.035C1056.41 621.785 1065.48 655.922 1119.64 669.322C1184.77 685.436 1263.31 668.728 1322.43 667.711C1368.56 666.947 1407.54 668.347 1441.59 675.513C1480.43 683.698 1516.52 710.583 1550.28 731.828C1566.69 742.175 1579.16 751.547 1589.97 749.893C1656.55 739.8 1661.55 688.447 1717.82 610.845C1737.88 583.196 1757.26 550.671 1786.1 521.114C1821.38 484.9 1903.82 361.414 2057.5 273.762C2065.3 269.309 2073.91 264.644 2083.24 259.81C2152.2 224.571 2265.59 181.19 2423.73 179.663" stroke="var(--stroke-0, #00D4AA)" stroke-opacity="0.5" stroke-miterlimit="10"/>
<path id="Vector_45" d="M41.1942 459.499C90.3859 475.316 136.821 492.872 180.288 507.248C254.118 531.8 296.525 542.911 348.515 573.019C389.862 596.936 410.853 619.665 447.153 635.737C471.787 646.267 497.088 655.163 522.891 662.368C570.429 677.507 593.117 665.633 641.63 651.936C692.263 637.73 733.737 636.5 772.369 615.933C824.318 611.057 870.498 623.058 922.574 615.933C927.446 617.231 932.43 618.069 937.458 618.435C1044.07 625.899 1059.21 653.123 1111.03 664.276C1177.4 678.609 1255.93 661.732 1316.53 661.138C1362.97 660.629 1402.7 662.792 1437.26 671.23C1476.7 680.857 1513.17 710.88 1546.29 733.737C1562.79 745.144 1575.3 754.939 1586.11 753.37C1652.6 743.278 1656.59 687.472 1711 605.629C1730.17 576.793 1749.16 543.08 1777.87 512.336C1811.12 477.012 1895.25 350.346 2051.23 260.446C2059.07 255.909 2067.76 251.159 2077.22 246.24C2146.68 210.408 2261.35 165.839 2421.52 163.761" stroke="var(--stroke-0, #00D4AA)" stroke-opacity="0.5" stroke-miterlimit="10"/>
<path id="Vector_46" d="M43.484 476.079C91.1491 491.938 136.779 509.749 180.161 524.887C250.471 549.356 293.514 562.289 345.25 592.397C385.494 615.805 407.206 637.814 441.81 653.886C465.792 664.655 490.372 674.042 515.428 682.001C561.693 698.327 585.398 689.506 633.106 677.336C681.874 664.954 720.464 662.579 760.75 640.782C810.026 634.252 855.656 641.588 909.173 631.071C914.15 631.736 919.164 632.09 924.185 632.131C1031.9 636.923 1053.27 650.578 1102.67 659.568C1170.27 671.866 1248.85 654.225 1310.85 654.819C1357.5 655.285 1398.12 657.533 1433.19 667.243C1473.22 678.311 1509.99 711.515 1542.56 735.941C1559.14 748.408 1571.73 758.755 1582.51 757.144C1648.96 747.051 1651.93 686.877 1704.38 600.794C1722.7 570.728 1741.15 535.828 1769.94 503.812C1800.9 469.378 1887.03 339.15 2045.04 247.385C2052.98 242.748 2061.73 237.928 2071.28 232.924C2141.26 196.37 2257.32 150.7 2419.4 147.816" stroke="var(--stroke-0, #00D4AA)" stroke-opacity="0.5" stroke-miterlimit="10"/>
<path id="Vector_47" d="M45.7745 492.616C91.9129 508.433 136.652 526.54 180.034 542.4C246.697 566.741 290.503 581.498 341.985 611.691C381.084 634.59 403.517 655.962 436.509 671.949C467.042 686.791 491.638 695.272 507.964 701.633C553 719.062 577.723 713.337 624.455 702.778C666.728 693.072 708.33 680.65 749.004 665.588C793.615 649.898 840.178 634.293 895.603 646.124C900.635 646.824 905.747 646.71 910.743 645.785C1019.9 635.014 1047.16 647.905 1094.19 654.817C1163.06 664.91 1241.6 647.524 1305.08 648.457C1352.2 649.135 1393.41 652.231 1428.99 663.171C1469.58 675.893 1506.68 712.108 1538.7 738.102C1555.32 751.63 1568.05 762.485 1578.82 760.832C1645.14 750.697 1647.18 686.113 1697.56 595.789C1715.03 564.493 1733.05 528.491 1761.72 495.245C1790.38 461.999 1878.63 328.336 2038.72 234.195C2046.69 229.573 2055.68 224.611 2065.22 219.48C2135.74 182.333 2253.12 135.517 2417.2 131.913" stroke="var(--stroke-0, #00D4AA)" stroke-opacity="0.5" stroke-miterlimit="10"/>
<path id="Vector_48" d="M48.0643 509.198C92.6761 525.015 136.567 543.122 179.949 560.084C242.923 584.298 287.535 600.921 338.719 631.156C376.885 653.547 399.87 674.283 431.166 690.185C460.384 705.07 484.132 714.356 500.501 721.269C544.349 739.8 570.005 737.128 615.804 728.181C660.798 719.403 690.652 708.208 737.257 690.44C779.239 674.41 823.936 671.315 882.076 661.18C887.419 660.247 892.55 660.332 897.342 659.483C1007.85 639.638 1041.06 645.15 1085.71 650.069C1155.81 657.745 1234.39 640.867 1299.27 642.097C1346.73 643.03 1388.71 646.931 1424.8 659.059C1465.97 673.053 1503.33 712.575 1534.84 740.181C1551.51 754.769 1564.53 766.134 1575.08 764.48C1641.32 754.345 1642.47 685.309 1690.94 590.617C1707.61 558.091 1725.25 521.071 1753.74 486.468C1780.59 453.901 1870.36 317.057 2032.65 220.881C2040.71 216.174 2049.62 211.128 2059.41 205.87C2130.44 168.129 2249.22 120.168 2415.16 115.842" stroke="var(--stroke-0, #00D4AA)" stroke-opacity="0.5" stroke-miterlimit="10"/>
<path id="Vector_49" d="M50.5658 525.736C93.6509 541.554 136.736 560 180.033 577.514C239.403 601.558 284.735 619.919 335.666 650.367C372.517 672.248 396.434 692.348 426.077 708.208C453.938 723.05 476.668 733.1 493.249 740.733C535.952 760.367 562.541 760.749 607.407 753.455C650.492 746.416 677.76 735.009 725.722 715.29C765.202 698.921 809.093 691.246 868.717 676.277C874.018 674.962 879.276 674.411 884.153 673.181C996.107 644.303 1035.29 650.155 1077.44 645.32C1149.25 637.434 1221.49 634.261 1293.72 635.822C1341.51 636.967 1384.21 641.674 1420.94 655.159C1462.71 670.594 1500.28 713.297 1531.19 742.472C1547.86 758.12 1560.88 769.951 1571.56 768.339C1637.76 758.162 1637.97 684.715 1684.45 585.995C1700.31 552.282 1717.66 514.244 1745.9 478.242C1770.71 446.65 1862.13 306.287 2026.67 208.118C2034.77 203.326 2043.64 198.195 2053.69 192.852C2125.27 154.432 2245.36 105.326 2413.25 100.365" stroke="var(--stroke-0, #00D4AA)" stroke-opacity="0.5" stroke-miterlimit="10"/>
<path id="Vector_50" d="M52.6439 537.652C94.2024 553.469 136.482 572.043 179.864 590.447C235.671 614.237 281.64 634.719 332.528 665.039C368.277 686.242 392.915 705.918 420.903 721.65C447.407 736.535 469.162 747.348 485.87 755.575C527.556 776.269 554.951 779.704 598.884 774.064C640.103 768.763 664.911 757.356 714.103 735.135C751.166 718.385 794.421 706.299 855.317 686.369C860.618 684.63 865.876 683.485 870.88 681.831C984.36 644.005 1029.35 640.443 1069.09 635.609C1141.72 626.671 1214.91 622.944 1288.08 624.456C1336.17 625.856 1379.63 631.369 1416.7 646.126C1459.1 663.088 1496.84 708.844 1527.46 739.418C1544.09 756.126 1557.15 768.509 1567.96 766.855C1634.07 756.635 1633.48 678.778 1677.84 575.775C1692.89 540.79 1710.06 501.819 1737.93 464.417C1760.78 433.758 1853.82 289.918 2020.61 189.713C2028.75 184.836 2037.87 179.621 2047.88 174.193C2119.97 135.137 2241.46 84.8862 2411.26 79.2038" stroke="var(--stroke-0, #00D4AA)" stroke-opacity="0.5" stroke-miterlimit="10"/>
<path id="Vector_51" d="M54.807 544.055C94.8389 559.872 136.397 578.446 179.44 597.825C231.685 621.361 278.502 643.708 328.796 674.156C363.443 694.977 388.759 713.932 415.094 729.538C440.283 744.464 461.063 755.956 477.94 765.031C518.608 786.785 546.809 793.231 589.767 789.287C629.12 785.683 651.638 774.572 701.89 749.765C736.579 732.803 779.324 716.18 841.281 691.245C846.624 689.125 851.925 687.386 856.971 685.308C972.147 638.45 1022.61 625.347 1060.14 620.64C1133.21 611.523 1212.55 605.671 1281.8 607.918C1330.23 609.487 1374.42 615.848 1412.03 631.877C1454.99 650.197 1492.9 699.175 1523.14 731.573C1539.76 749.383 1553.12 762.19 1563.76 760.536C1629.83 750.359 1628.39 668.007 1670.67 560.805C1684.92 524.591 1702.01 484.729 1729.36 445.843C1750.31 416.159 1844.92 268.842 2013.95 166.602C2022.18 161.683 2031.34 156.34 2041.47 150.785C2114.12 111.135 2236.93 59.7395 2408.67 53.2514" stroke="var(--stroke-0, #00D4AA)" stroke-opacity="0.5" stroke-miterlimit="10"/>
<path id="Vector_52" d="M57.1817 550.162C95.7294 565.937 136.609 584.51 179.44 604.95C229.512 628.412 278.319 654.485 325.658 683.061C359.202 703.416 385.027 721.778 409.92 737.213C433.71 752.267 453.557 764.395 470.604 774.191C510.297 797.048 539.26 806.462 581.243 804.257C618.773 802.306 639.128 791.747 690.271 764.141C722.754 746.627 765.033 725.764 827.88 695.868C833.223 693.323 838.566 690.991 843.698 688.532C960.528 632.641 1016.08 607.749 1051.79 605.416C1126.38 600.667 1205.43 588.454 1276.16 591.126C1324.93 592.864 1369.84 600.158 1407.96 617.417C1451.51 637.178 1489.55 689.507 1519.41 723.432C1535.94 742.302 1549.51 755.617 1560.16 754.006C1626.14 743.744 1623.77 656.939 1664.05 545.54C1678.28 503.81 1697.53 463.966 1721.39 426.888C1740.47 398.095 1836.61 247.343 2007.84 143.067C2016.11 138.063 2025.36 132.635 2035.62 126.995C2108.77 86.7098 2232.98 34.1692 2406.64 27.0874" stroke="var(--stroke-0, #00D4AA)" stroke-opacity="0.5" stroke-miterlimit="10"/>
<path id="Vector_53" d="M59.4716 556.014C150.317 594.747 238.194 640.102 322.393 691.713C457.839 774.785 494.861 819.651 572.592 818.93C629.205 818.378 642.563 794.292 814.31 700.194C943.48 629.419 1008.07 594.179 1043.31 589.939C1169.93 575.139 1308.35 556.82 1403.76 602.661C1472.55 635.695 1526.74 751.42 1556.43 746.84C1644.42 733.185 1609.69 575.097 1713.33 407.594C1730.59 379.691 1828.21 225.547 2001.7 119.236C2069.04 77.9747 2204.23 9.3623 2404.56 0.499511" stroke="var(--stroke-0, #00D4AA)" stroke-opacity="0.5" stroke-miterlimit="10"/>
</g>
</svg>
